<?xml version="1.0" encoding="utf-8"?>
<!-- Generator: Adobe Illustrator 21.1.0, SVG Export Plug-In . SVG Version: 6.00 Build 0)  -->
<svg version="1.1" id="Capa_1" xmlns="http://www.w3.org/2000/svg" xmlns:xlink="http://www.w3.org/1999/xlink" x="0px" y="0px"
	 viewBox="0 0 417.3 326.9" style="enable-background:new 0 0 417.3 326.9;" xml:space="preserve">
<style type="text/css">
	.st0{fill:#FFFFFF;}
</style>
<g>
	<g>
		<g>
			<path class="st0" d="M219.6,311.8c-28.1-1.5-37.5-14.9-44.9-18.8c-11.1-5.9-12.3-14.8-22.7-22c-5.3-3.8-10.5-8-15.4-12.5
				c-0.2-0.3-0.3-0.7-0.1-1c0.3-0.6,0.8-1.1,1.1-1.7c0.2-0.3,0.7-0.7,0.9-0.9c8.7-6.7,21.2-6.3,29.7,1.9c0,0.1,0.1,0.1,0.2,0.2
				s0.4,0.4,0.7,0.7c1.6,2,3.2,4.1,4.5,6.5c0.2,0.3,0.4,0.3,0.4-0.1c0-0.9,0-1.7-0.1-2.5c-1.2-7.1-4.7-12.9-9.5-17.8
				c-6.9-7.2-15.4-11.3-24.6-14.1c-5.7-1.7-11.3-3.9-17.2-5.9c-0.2-0.2-0.5-0.2-0.5-0.2s-0.2-0.1-0.5-0.3c-0.4-0.3-1-0.6-1.4-0.9
				c-0.3-0.2-0.5-0.6-0.5-1c-0.1-4.8,0.2-9.6,1.1-14.5c0.3-1.4,0.7-2.9,1.1-4.2c0.1-0.3,0.3-0.9,0.4-1.1c0.2-0.5,0.4-1,0.7-1.3
				c0.1-0.3,0.4-0.8,0.7-1c1.7-2.1,3.7-4,5.3-5.5c5-4.7,11.2-7.9,17.7-9.7c0.3-0.1,0.8,0,1,0.3c2,2.7,3.6,5.5,4.8,8.6
				c0.2,0.4,0.3,0.9,0.3,1.2c0.1,0.9,0.2,1.7,0.4,2.6c1,4.4,1.5,8.8-0.7,13c-0.1,0-0.1,0.1-0.1,0.2c-0.1,0.2-0.2,0.5-0.4,0.8
				c-1.2,1.8-2.5,3.6-3.7,5.4c-0.2,0.3-0.3,0.6-0.3,0.9c0,0.4,0.1,0.9,0.2,1.2c0.2,0.8,0.9,1.3,1.7,1c0.9-0.4,1.6-0.7,2.4-1
				c0.3-0.1,0.9-0.3,1.2-0.3c12.8-1,24-6.7,34.9-14c0.2-0.2,0.3-0.7,0.2-1c-4.4-9.7-5.5-19.8-5.9-29.9c0-0.4-0.1-0.7-0.2-0.7
				s-0.2-0.3-0.2-0.7c0-5,0.1-9.9,0.1-14.9c0-0.4,0-0.9,0.1-1.2c1-4.3,1.7-8.3,2.6-12.3c1.3-5.9-0.3-10.7-5-14.1
				c-3.3-2.4-6.7-4.6-10-6.9c-5-3.3-10.4-6.4-15.2-9.9c-0.3-0.2-0.7-0.5-0.8-0.6c-0.1-0.1-0.2-0.1-0.3-0.2c-0.1,0-0.1,0-0.1,0
				s-0.3-0.2-0.5-0.4c-0.4-0.4-1-0.8-1.5-1.2c-2.4-2-4.6-4.3-6.7-6.7c-0.3-0.3-0.7-0.8-0.8-1c-2.1-3.8-3.1-8.3-2.6-12.9
				c0.1-0.4,0.2-0.8,0.3-0.9c0.1-0.1,0.1-0.1,0.2-0.2c0.9-0.9,0.4-2-0.3-2.5c-0.3-0.1-0.7-0.2-0.8-0.3c-0.1,0-0.1-0.1-0.2-0.1
				c-1.1-0.3-2.2-0.3-3.2,0c-0.3,0.1-0.9,0.2-1.2,0.2c-1.7,0.2-3.3,0.7-4.9,1c-11.1,2.9-20.5,8.5-27.5,18.3c-2.2,3-2.2,3.8,1.1,5.7
				c1,0.6,2,1.1,3.1,1.6c0.3,0.1,0.9,0.4,1.1,0.6c0.2,0.1,0.3,0.3,0.5,0.4c1.6,1,3.1,2,4.5,3.1c0.2,0.2,0.4,0.4,0.3,0.4
				c0,0,0.1,0.2,0.3,0.5c2,2.3,3.5,4.1,5.1,5.8c0.3,0.4,0.8,0.8,1.1,1c0.2,0.2,0.5,0.5,0.7,0.7c0.1,0.1,0.1,0.2,0.2,0.3
				c0.5,0.9,1.1,1.5,1.7,2.1c0.2,0.2,0.5,0.6,0.7,1c0.1,0.4,0.1,0.9,0.1,1.3c0,0.3,0,0.6,0.1,0.6c0.1-0.1,0,0.1-0.3,0.3
				c-2.1,1.4-4.6,2.6-6.9,3.7c-0.1,0.1-0.2,0.1-0.3,0.2c-0.1,0.1-0.5,0.3-0.9,0.4c-16,5.3-28.5,16-38.6,30c-2.7,3.8-6.1,6-10.6,6.1
				c-3.9,0.1-7.7-0.2-11.7-0.2c-5,0-10.1-0.4-15.2,0.2c-3.4,0.4-6.9,1.5-9.8,3.3c-14.6,9.2-25.1,21.9-29,39.9
				c-0.3,1.7-0.8,3.5-1.2,5.2c0,0.4,0.1,0.6,0.4,0.4c1.1-0.6,1.7-1.3,2.4-2c3.7-3.7,7-8,11.1-11c11.6-8.5,24.2-11,37.5-4.5
				c3.3,1.6,6.2,5.4,10.6,1c0.2-0.2,0.4-0.2,0.3,0.2c-4.3,24.5-2.6,46.5,12.5,66.2c0.2,0.3,0.4,0.5,0.5,0.4c0,0,0.2,0.2,0.3,0.5
				c0.5,1.5,1.3,3,2.1,4.4c0.1,0.4,0.1,0.8-0.1,1c-6.7,7.5-14.6,13.2-24.8,15.5c-0.2,0.1-0.3,0.2-0.5,0.5c-0.2,0.3-0.1,0.5,0.2,0.6
				c12.9,2.3,24.8,0.6,36-4.2c0.2-0.2,0.8-0.1,1,0.1c7.7,6.1,17.1,10.2,26.2,13.2c16.5,5.3,60.3,19.2,63.7,20.8
				c2.1,1.1,12.2,5.1,19.3,3.2c0.3,0.1,5.3,0.2,5.9,0.1"/>
		</g>
	</g>
	<path class="st0" d="M192.6,326.2c0.5,0,1,0,1.5,0.2c1.6,0.2,3.2,0.4,4.8,0.5c20.3,0.7,40.1-7,55.3-21.3c1.2-1.2,3.1-1.7,4.7-1
		c16.9,6.7,36,1,47-14.2c0.9-1.1,1.5-2.1,2.1-2.9l0,0c-10.8,2.1-33.3,6.6-44.9-18.7c-5.3-11.8-9.8-24-13.4-36.6
		c-0.5-1.7-1.1-3.6-1.6-5.2c-0.3,0.8-0.8,1.6-1.2,2.7c-8.5,20.6,5.5,60.8,5.6,61.2c0.7,1.9,0,4.2-1.6,5.3
		c-1.5,1.1-34.1,24.1-55.7,9.6c-0.1,0-0.1,0-0.2,0"/>
</g>
<g>
	<g>
		<g>
			<path class="st0" d="M215.4,14.7c26.4,2.8,34.5,16.9,41.3,21.2c10.2,6.5,10.9,15.7,20.3,23.5c4.8,4.1,9.5,8.7,13.8,13.4
				c0.2,0.3,0.3,0.7,0.1,1c-0.3,0.6-0.8,1.1-1.1,1.7c-0.2,0.3-0.6,0.7-0.9,0.8c-8.5,6.4-20.2,5.5-27.8-3.3c0-0.1-0.1-0.1-0.2-0.2
				c-0.1-0.1-0.4-0.4-0.6-0.7c-1.4-2.1-2.8-4.3-3.9-6.8c-0.2-0.3-0.4-0.3-0.4,0.1c0,0.9-0.1,1.8,0,2.5c0.8,7.3,3.8,13.4,8.1,18.6
				c6.1,7.7,13.9,12.3,22.5,15.5c5.2,2,10.5,4.5,15.9,6.8c0.2,0.2,0.5,0.2,0.5,0.2s0.2,0.1,0.5,0.3c0.4,0.3,0.9,0.6,1.3,0.9
				c0.3,0.2,0.5,0.6,0.5,1c-0.1,4.9-0.7,9.8-1.7,14.8c-0.4,1.4-0.8,2.9-1.2,4.2c-0.1,0.3-0.3,0.9-0.5,1.2c-0.2,0.5-0.5,1-0.7,1.3
				c-0.1,0.3-0.4,0.8-0.7,1c-1.7,2.1-3.7,3.9-5.3,5.4c-4.9,4.6-10.9,7.6-17.1,9.2c-0.3,0.1-0.7,0-0.9-0.3c-1.7-2.8-3.1-5.8-4.1-9
				c-0.2-0.4-0.3-0.9-0.2-1.3c-0.1-0.9-0.1-1.8-0.3-2.7c-0.7-4.5-1-9,1.2-13.2c0.1,0,0.1-0.1,0.1-0.2c0.1-0.2,0.2-0.5,0.4-0.8
				c1.2-1.8,2.5-3.6,3.7-5.4c0.2-0.3,0.3-0.6,0.3-0.9c0-0.4-0.1-0.9-0.1-1.3c-0.2-0.8-0.8-1.4-1.6-1.1s-1.6,0.6-2.3,0.9
				c-0.3,0.1-0.8,0.3-1.1,0.2c-12,0.5-22.9,5.8-33.5,12.8c-0.2,0.2-0.3,0.7-0.3,1c3.6,10.1,4.2,20.5,4.1,30.9c0,0.4,0.1,0.7,0.2,0.7
				c0.1,0,0.2,0.3,0.2,0.7c-0.2,5.1-0.6,10.1-0.8,15.2c0,0.4,0,0.9-0.2,1.3c-1.1,4.3-2,8.4-3,12.5c-1.5,6-0.2,10.9,4,14.6
				c3,2.6,6,5,9.1,7.5c4.6,3.6,9.4,7,13.8,10.8c0.3,0.2,0.6,0.5,0.7,0.6c0.1,0.1,0.2,0.1,0.3,0.2c0.1,0,0.1,0,0.1,0s0.3,0.2,0.5,0.4
				c0.4,0.4,0.9,0.8,1.4,1.3c2.2,2.2,4.1,4.6,5.9,7.1c0.3,0.3,0.6,0.8,0.7,1.1c1.8,4,2.5,8.6,1.8,13.3c-0.1,0.4-0.2,0.8-0.3,0.9
				c-0.1,0.1-0.1,0.1-0.2,0.2c-0.9,0.8-0.5,2,0.2,2.5c0.3,0.1,0.6,0.2,0.7,0.3c0.1,0,0.1,0.1,0.2,0.1c1,0.3,2,0.4,3,0.1
				c0.3-0.1,0.8-0.2,1.1-0.1c1.6-0.1,3.1-0.5,4.7-0.9c10.6-2.4,19.7-7.8,26.7-17.5c2.2-3,2.2-3.8-0.8-5.9c-0.9-0.6-1.8-1.3-2.8-1.8
				c-0.3-0.1-0.8-0.4-1-0.6c-0.2-0.1-0.3-0.3-0.5-0.4c-1.5-1-2.8-2.2-4-3.4c-0.2-0.2-0.4-0.4-0.3-0.4c0,0-0.1-0.2-0.3-0.5
				c-1.7-2.4-3.1-4.3-4.5-6.2c-0.3-0.4-0.7-0.8-1-1.1c-0.2-0.2-0.5-0.5-0.6-0.7c-0.1-0.1-0.1-0.2-0.2-0.3c-0.5-0.9-1-1.6-1.5-2.2
				c-0.2-0.2-0.5-0.6-0.6-1c-0.1-0.4-0.1-0.9,0-1.4c0-0.3,0-0.6-0.1-0.6c-0.1,0.1,0-0.1,0.3-0.3c2-1.4,4.4-2.4,6.6-3.5
				c0.1-0.1,0.2-0.1,0.3-0.2c0.1-0.1,0.5-0.3,0.8-0.4c15.3-4.8,27.5-15.1,37.7-29c2.7-3.8,6-5.9,10.2-5.8c3.7,0.1,7.3,0.5,11,0.7
				c4.7,0.2,9.5,0.8,14.3,0.5c3.2-0.2,6.5-1.3,9.4-3c14.2-8.8,24.6-21.3,29.2-39.6c0.4-1.7,0.9-3.6,1.4-5.3c0-0.4-0.1-0.6-0.4-0.4
				c-1.1,0.5-1.7,1.3-2.4,1.9c-3.7,3.6-6.9,7.9-11,10.7c-11.3,8.2-23.3,10.1-35.5,2.9c-3-1.8-5.6-5.8-9.9-1.5
				c-0.2,0.2-0.4,0.2-0.3-0.2c5.2-24.9,4.7-47.5-8.6-68.3c-0.2-0.3-0.4-0.5-0.5-0.4c0,0-0.2-0.2-0.3-0.5c-0.4-1.6-1.1-3.1-1.7-4.6
				c-0.1-0.4-0.1-0.8,0.2-1.1c6.6-7.4,14.4-12.8,24-14.8c0.2-0.1,0.3-0.2,0.5-0.5c0.2-0.3,0.1-0.5-0.2-0.6c-12-2.9-23.2-1.7-34,2.7
				c-0.2,0.2-0.7,0.1-0.9-0.1c-7-6.6-15.6-11.2-24-14.6c-15.2-6.2-55.7-22.3-58.8-24.1c-1.9-1.3-11.2-5.7-18-4.2
				c-0.3-0.1-5-0.4-5.5-0.4"/>
		</g>
	</g>
	<path class="st0" d="M241.5,1.2c-0.5,0-0.9,0-1.4-0.3c-1.5-0.3-3-0.5-4.5-0.7c-19-1.6-38,5.3-53,19.3c-1.2,1.2-3,1.6-4.5,0.8
		c-15.6-7.6-33.8-2.6-44.8,12.5c-0.9,1.1-1.5,2.1-2.1,2.8l0,0c10.2-1.7,31.6-5.3,41.3,21.1c4.5,12.3,8.1,25,10.8,38
		c0.4,1.8,0.9,3.8,1.3,5.4c0.3-0.8,0.8-1.6,1.3-2.7c9-20.7-2.2-62.4-2.3-62.8c-0.5-2,0.2-4.3,1.8-5.4c1.5-1.1,33.2-23.2,52.8-7.4
		c0.1,0,0.1,0,0.2,0"/>
</g>
</svg>
