<?xml version="1.0" encoding="utf-8"?>
<!-- Generator: Adobe Illustrator 21.1.0, SVG Export Plug-In . SVG Version: 6.00 Build 0)  -->
<svg version="1.1" xmlns="http://www.w3.org/2000/svg" xmlns:xlink="http://www.w3.org/1999/xlink" x="0px" y="0px"
	 viewBox="0 0 640.7 498.7" style="enable-background:new 0 0 640.7 498.7;" xml:space="preserve">
<style type="text/css">
	.st0{fill:#080404;}
	.st1{fill:#898989;}
	.st2{fill:#FBB829;}
	.st3{fill:#006837;}
	.st4{fill:#39B54A;}
	.st5{fill:#DDDDDD;}
	.st6{fill:#ED1E79;}
	.st7{fill:#0A0506;}
	.st8{fill:#F9F7F7;}
	.st9{fill:#0E090A;}
	.st10{fill:#080405;}
	.st11{fill:#AAAAAA;}
	.st12{fill:#282828;}
	.st13{fill:#FFFFFF;}
	.st14{fill:#00D3BE;}
	.st15{fill:#0A0606;}
	.st16{fill:#662D91;}
	.st17{fill:#DFDBDB;}
	.st18{fill:#E2DFDE;}
	.st19{fill:#F5F3F2;}
	.st20{fill:#F9F8F6;}
	.st21{fill:#0D0707;}
	.st22{fill:#C1272D;}
	.st23{fill:#FF002B;}
	.st24{fill:#841921;}
	.st25{display:none;}
	.st26{display:inline;}
	.st27{fill:#3D3D3D;}
	.st28{fill:none;}
</style>
<g id="Layer_5">
</g>
<g id="Layer_1">
	<g>
		<g id="XMLID_1_">
			<g>
				<path class="st0" d="M590.2,218.5c-0.1-1,0.9-1.7,1.8-2.2c5.2-3.3,10.3-6.6,15.6-9.8c6.5-3.9,13.3-7.2,20.3-12.4
					c-15.9,2.4-29.4,8.8-44.3,11.5l-0.7-2.5c7-2,13.4-3.8,19.7-5.8c9.5-3,19.3-5,29-7c1.3-0.3,2.8-0.6,3.4,1.1
					c0.6,1.6-0.8,2.3-1.9,3.1c-4.9,3.7-9.8,7.3-15.2,10.4c-8.5,4.9-16.7,10.2-25.1,15.3c-0.9,0.3-1.8,1.3-2.7,0.9
					c0-0.9,0-1.7-0.1-2.5L590.2,218.5z"/>
				<path class="st0" d="M589.7,217.2c0.7-1.3,1.9-2,3.1-2.9c2.8-1.9,5.5-3.8,8.3-5.5c7.1-4.3,14.4-8.2,20.9-12.1
					c-10.4,1.9-20.9,6.6-32,9c-5.1,1.1-5,1.3-2.8,5.9C588.5,213.3,589.3,215.2,589.7,217.2z M231.1,387.3l0.1,0.2
					c2.4,1.2,2.9,3.8,5.1,5.5c2,1.5,4.3,2.3,6.4,0.5c2-1.7,1-3.9,0-5.9C240.8,383.5,234.4,385.4,231.1,387.3z M193.2,274
					c2.2,1.9,2,4.6,2.3,7.1c0.3,2.2,0.5,4.4,2.3,5.9c1.9,1.5,4,4.3,6.2,2.7c2-1.4,0-4.3-1-6.3c-2-4.1-5.7-7.2-6.9-11.8
					C194.6,271.7,194.1,273.1,193.2,274z M193.2,274c0.8-1.3,0.5-2.2-1-2.6c-3.3-0.9-5.5-3.3-6.9-6.1c-1.6-3.3-3.2-3.1-6.2-1.7
					c-15.1,7.2-30.9,13-46.8,18.1c-10.7,3.4-21.4,6.7-32.2,10.8c3.1,5.3,5.2,10.6,1.9,17.3c29.2-6.9,57.3-14.1,85.1-22.3
					c4.1-1.2,5.9-2.9,5.2-7.3C192,278.2,191.7,275.9,193.2,274C193.2,274,193.2,274,193.2,274z M234.7,383c1.5-0.8,3.2-1.2,4.3-1.4
					c3.1-0.4,5.4,1.2,6.9,3.9c0.9,1.6,1.6,4.8,2.5,4.9c2.9,0.2,5.1,1.4,7.2,2.9c3.5,2.7,6.5,6.4,11,7.8c2.8,0.9,5.2,2.9,7.7,4.9
					c0.1,0.1,0.3,0.3,0.4,0.4c0.5,0.6,1.1,0.9,1.8,1.2c2.2,1.6,4.5,2.9,7.4,3.2c1.6,0.2,2.9,2.1,3.7,3.8c0.6,1,1.2,2.5,2.5,1.3
					c3.5-3.1,9.8-1.8,11.5-8c0.9-3.1,4.6-3.9,7.9-3.9c-0.2-3.8,1.4-7,4.3-9.1c3.5-2.6,6.4-5,6.6-10c0.1-2.7,2.2-6.2,4.4-6.9
					c6.7-2,7.5-8.3,11.1-12.5c3.2-3.7,7-6.8,8.1-12c0.3-1.6,1.8-3.4,3.2-4.3c2.8-1.6,2.7-3.7,2.2-6.3c-1-5,0.3-9.2,4.6-12.2
					c0.9-0.7,1.9-1.1,1.4-2.7c-1.6-5.3-0.1-9.9,3.2-14.3c1.9-2.6,0.7-5.3-0.6-8c-1.4-2.9-3-0.8-4.5-0.7c-2.3,0.2-4.6,0.9-6.7-0.7
					c-0.6-0.4-1.1-0.7-1.8-0.2c-0.7,0.5-0.5,1,0,1.6c3.8,5.1,0.5,9.1-2.8,12.2c-0.2,0.2-0.5,0.4-0.7,0.7l-2.6-1.5c1-1,1.9-2,2.6-3.3
					c1-1.8,3.2-4.1,1.3-5.7c-2-1.8-3.6,1.2-5,2.5c-2.4,2.3-3.7,5-3.5,8.9l-2.5,0.1c0-0.1,0-0.3,0-0.4c-1-6.7,3.5-10.5,8.6-14.9
					c-14.5,0.9-28.1,2.8-41.7,2.2c-0.7,0-1.7,0.3-2.2,0.8c-6.6,6.2-15.2,8.9-22.8,13.2c-6.2,3.5-13.1,5.5-20.1,7.2
					c-2.2,0.5-4.8,1.8-6.3-1c-1.4-2.6,1.1-3.9,2.6-5.3c4.7-4.3,8.1-9.9,13.9-13.7c-12.8-2.2-24.9-3.3-37.2-3.4
					c3.5,1.1,5.2,4.1,4.2,6.6c-0.1,0.2-0.2,0.4-0.2,0.7l-2.8-0.1c0.1-0.1,0.1-0.3,0.1-0.4c-0.3-4-2.8-4-4.8-4.6
					c-0.8-0.2-1.3,0.1-1.5,0.6l-1.5-0.2c0.3-0.6,0.7-1.3,0.1-1.4c-5-1.1-5.5-7.3-10.5-8.6c0.3,2.9,0.2,5.7-1.1,8.3l-2.9-0.9
					c0.6-1.3,0.8-3.1,0.9-4.5c0.1-2,0-4.7-2.5-4.5c-0.9,0.1-1.5,0.4-1.9,0.8l-2.5-0.2c0.5-0.8,0.7-1.6-1-2.1
					c-3.2-1.1-4.3-7.7-9.7-3.5c-3.6,2.8-8.4,3-12.7,4.2c-19.2,5.4-38.4,10.7-57.6,15.9c-2.6,0.7-5.2,1-7.9,1.2
					c-5.4,0.6-10.6,0.9-15,5.3c-3.3,3.4-8.1,4-12,0.3c-1.3-1.2-2.4-0.7-3.6-0.6c-14.7,1.5-29.3,4.2-43.9,6.5
					c-4.6,0.7-9.3,0.9-13.9,1.3c-1.4,0.1-2.9-0.1-3.4-1.5c-0.6-1.7,0.8-2.4,2-2.9c20.3-8.1,39.5-18.8,60.9-26.4
					c-3.9-2.8-7.3-5.8-11.3-8c-3.1-1.7-2.9-2.8-1.4-5.7c4.2-8.1,11.9-7.8,18.9-7.9c4.2-0.1,6.8,4.3,9.9,7c1,0.8,0,2.2-0.8,3.1
					c-1.9,2.1-3.7,4.1-5.6,6.2c3.1,2,5.6,0.6,8.8-0.4c8.9-2.6,17.3-6.7,26.2-9.3c8.1-2.3,16-5.2,24.1-7.8c10.4-3.3,20.4-7.8,31-10.4
					c3.6-0.9,3.4-5.3,5.1-7.9c1.1-1.6-1.7-2.4-2.9-3.3c-8.1-6.1-14.2-13.9-20.8-21.4c-2.3-2.6-2.4-6.1-3.4-9.3
					c-2.3-6.8-4.8-13.4-7.1-20.2c-0.7-2-1.7-2.9-3.8-3.2c-11.5-1.4-22.7-2-34.1,1.7c-18.9,6.1-30.3,0-39.5-13.9
					c-4.6-7-2.4-15.5-1.3-23.3c0.9-6.4,4.3-11,9.8-13.9c0,0,0,0,0,0c5.1-3.3,16-6.4,20.6-5.9c13.9,1.6,27.8,2.8,41.8,1.1
					c25.1-3.1,50.2-6.2,75.2-10.1c8.7-1.4,16.8-4.6,24-9c11.6-7.1,24.8-10.1,36.9-15.9c11.8-5.7,23.7-11.1,36.2-15.2
					c3.5-1.1,4.9-2.9,1.9-6.5c-2.9-3.5-1.8-6.9,2.5-7.9c2.3-0.6,2.5-2.3,3.7-3.5c2.5-2.8,4.3-7.2,9.5-4.9c1.8,0.8,1.8-0.9,2.3-1.7
					c5-8.8,12.6-14.9,20.7-20.5c8.8-6.2,17.2-13,26.9-17.9c3.2-1.7,6.5-2.8,9.9-3.8c-0.1,3.7-1.7,7-3.5,10.2
					c-0.8,1.5-1.6,2.9-2.5,4.3c-1.8,2.7-2.6,4.4,1.6,6.1c5,2.1,7.8,12.2,5.5,17.1c-2.7,5.9-7.9,7.8-15.1,5.4c-1.5-0.5-3-1.2-4.6-1.8
					c-0.1,1.9-1.1,3.6-2.2,5.6c3.5,0.6,7.1,0.9,9.2,4.1c0.5,0.8,1.3,0.7,2.1,0.7c1.9,0,3.8,0.1,5.6,0.5l-0.5,2.9
					c-1.2-0.2-2.4-0.1-3.6,0.5c4.2,3.1,4.4,3.1,8.9,2.5l2.7-0.5c0.1,0.2,0.2,0.4,0.3,0.5c1.2,2.4,5.4,3.2,8.9,3.4
					c4.3,0.2,9,0.5,9.3,6.7c0.1,1.4,1.3,1.4,2.2,1.7c3.3,1.2,5.4,3.9,5.7,7c0.6,6,4.7,12.5-1.5,18.1c-1,0.9-0.3,1.8,0.2,2.7
					c1.3,2.5,1.8,4.9,1.1,8c-0.8,3.3,1.8,4.7,5.2,4.5c9.2-0.6,18.1-2.5,27-4.4c7.4-1.6,14.1-0.3,20.4,4c4.7,3.2,10.1,4.9,13.5,10.4
					c10.7,17,0.8,46-23.1,48.1c-6.3,0.6-12.3,0.2-18.3-1.3c-2.2-0.5-3.9-1-4.1,2.1c0,0.2-0.1,0.3-0.1,0.5c-0.4,2.3-4.7,2.7-3.3,5.5
					c1.3,2.7,3.3,5.5,5.7,7.3c5.3,4.2,10.6,8.4,17.1,10.9c8.9,3.3,17.2,2.8,25.5-1.4c2.2-1.1,4.1-1.3,6.2,0.9
					c13,13.2,9.9,13.8,31.7,8.2c11.7-3,23.1-7.2,34.1-12.5c1.7-0.8,2.1-1.6,2.3-3c0.3-2.1-1.6-1.1-2.4-1.5c-1-0.5-2.2-0.6-3.4-0.7
					c-4.1-0.3-4.8-2.3-3-5.7c1.2-2.4,2.4-4.7,3.6-7.1c3.4-6.7,7-8.5,14.4-7.5c0.8,0.1,1.6,0.3,2.4,0.5c9,2.2,9.7,4.1,4.5,11.9
					c-1,1.5-2.1,2.9-4,5.4c1.8-0.5,3.6-1,5.4-1.5l0.7,2.5c14.9-2.7,28.4-9.1,44.3-11.5c-7,5.2-13.8,8.5-20.3,12.4
					c-5.3,3.2-10.4,6.5-15.6,9.8c-0.9,0.5-1.9,1.2-1.8,2.2l-0.2,0c0.1,0.8,0.1,1.7,0.1,2.5c-0.1,1.4-0.3,2.8-0.7,4.2
					c-0.8,5.3-2.1,10.1-7.8,12.3c-4,1.5-6.4,0.2-7.5-4.3c-6.2,4.6-11.3,10.2-16.3,15.8c-5.4,6.1-6.2,13.4-5.1,21.1
					c1.2,8.5,0.9,16.9-0.4,25.4c-0.5,2.9-1.7,5.3-4.6,6.5c-4.6-11.3-15.5-15.3-24.7-21.3c-9.6-6.2-29.6-13.4-39.3-9.6
					c-6.1,0.3-11.7-0.7-18.2-1.1c5.1,6.1,11.8,7.6,17.3,11.4l0.4,2.3c-0.9,0.2-1.7,1.1-2.4,2.5c-2.3,4.6-2,9.6-2.7,14.5
					c-0.5,3.9,1.4,5.8,3.7,7.9c0.8,0.7,1.7,1.6,3.1,0.9c1.6-0.8,0.6-1.9,0.5-2.9c-0.8-8.5,2.2-13.4,10.1-15.9l2.7,0.1
					c8.5,4.6,15.6,10.7,24.2,14.4c18.8,8,37.5,16.2,56.2,24.4c1.9,0.8,4.5,1.6,3.5,4.5c-0.8,2.4-3.1,2.2-5.1,1.6
					c-18.9-5.7-39.2-6-57.7-13.5c-8.5-3.4-17-6.6-25.5-10c-1.9-0.8-3.9-1.8-5.5-0.2c-4.1,4.4-8,2.1-10.7-1
					c-8.6-9.5-20.4-12.3-31.6-16.6c-1.6-0.6-2.4-0.1-3,1.5c-0.6,1.5-1.6,2.9-2.2,4.4c-1.7,3.9-4.4,4.7-8.5,3.6
					c-10.2-3-20.1-6.7-30.1-10.5c-1.7-0.7-3.2-0.9-5.2-0.3c-8.5,2.6-16.8,6.6-26,6.5c-0.2,0-0.3,0-0.5,0c-0.8,0-1.3,0.6-1.1,1.3
					c1,5.3-6.5,6.8-5.4,11.9c1.4,6.3,2.9,12.5-3.7,17.1c-1.5,1-0.2,2.5-0.3,3.7c-0.4,4.9,1.1,10.7-5.5,13c-1.4,0.5-0.6,1.7-0.6,2.6
					c0.3,5.2-0.5,10-5.4,13.1c-1.3,0.8-1,1.9-1.2,3c-1.2,6.2-3.1,11.8-9.1,15.3c-2.6,1.6-2.7,5.2-3.8,7.9c-1.8,4.4-4.1,8.1-9.6,7.7
					c-2-0.1-2.1,1.1-2.5,2.4c-1.2,4.7-3.1,8.9-8.6,9.8c-1,0.2-1.2,0.9-1.3,1.8c-1.3,8.6-9,10.5-14.9,15c5.4,2.1,10.1,5.8,15.2,9
					c16.2,10,16.5,21.8,8.2,36.5c-2.6,4.6-5.2,9.2-7.4,14.1c-2.4,5.2-6.4,8.4-11.9,9.8c-11.4,2.8-22.7,2.2-33.6-2.4
					c-5.5-2.3-11.3-4.4-16-7.8c-9.3-6.6-10.2-16.4-8.5-26.9c2.8-17.2,22.3-30.5,37.5-33.6c-6.3-1.2-7.8-5.6-8-10.8
					c-0.3,0-0.5,0-0.6,0.1c-3.9,1.8-6.8-0.1-10.1-2c-3.2-1.8-5.6,3.8-9.3,1.7c-5.9-3.4-9.4-8.2-9.1-15.2
					c-9.2,1.1-12.4-1.5-13.1-10.4c0,0,0,0,0.1,0c0,0,0.1-0.1,0.1-0.1c0,0,0,0,0,0c1.4-1.1,2.3-2.4,2.9-3.8
					C234.2,383.3,234.4,383.2,234.7,383z M584.8,226.1c1.2-7.4-1.7-13.6-5.9-19.3c-2.2-3-4.8-0.9-7.1,0.3c-2.4,1.2-2.5,2.7-1.1,5.1
					c3.9,6.7,8.7,13.1,7.9,22C583.1,231.9,584,230.6,584.8,226.1z M579.7,193.8c0.6-0.8,1.4-1.7,0.2-2.4c-0.9-0.5-1.9-0.1-2.5,0.9
					c-1.1,1.9-2.4,3.6-3.4,5.5c-1.2,2.2-2.8,3.8-5.4,3.8c-2.2-0.2-4.3-0.4-6.4-0.5c2.1,2.1,4.6,2.8,7.4,2.2c0,0,0-0.1-0.1-0.1
					C575.6,202.9,576.8,197.4,579.7,193.8z M571,231.8c4.5-1.6,3.7-2.9,2.4-5.8c-0.4-0.9-0.4-2-0.9-2.8c-1.7-3-2.6-6.8-5.5-8.6
					c-2.8-1.7-4.2,2.6-6.8,2.9c-0.2,0-0.4,0-0.5,0.1c-9.1,4.1-18.6,7.1-28,10.4c-13.9,4.9-27.1,6.8-36.5-8.2c-1.2-2-2.5-0.6-3.8-0.3
					c-5.1,1.3-9.7,4.2-15.4,3.5c-14.1-1.7-25.6-7.5-34-19.3c-1.7,2.9-3.3,6.2-6.5,7.8c-2.5,1.2-2.4,2.8-1.8,4.8
					c1.3,4.5-0.5,7.5-3.9,10.4c-2.3,2-5.9,2.5-7.2,5.4c-1.2,2.6-3.1,4.3-5.3,5.8c-2.9,1.9-6.5,2.7-9.3,4.2c-0.3,0.2-0.6,0.3-1,0.5
					c-5.6,2.8-11,4.8-17.3,4.2c-1.1-0.1-1.1,1-1.5,1.7c-2.4,4.4-5.8,7.8-10.5,9.5c-1.4,0.5-2.2,0.9-2,2.7c0.6,5.4-0.7,10.3-4,14.7
					c0.4,5.3,1.1,10.5-1.9,15.3c-0.9,1.6-0.4,2.8,2.1,2c5.7-1.7,11.5-3.2,17.2-4.8c3.7-1.1,7.3-2.2,11-3.3c-1.1-1.1-2-1.2-2.9-1.3
					c-7.2-1-14.6-1-21.3-4.3c-0.9-0.4-3.3-0.3-1.7-2.3c0.1-0.1,0.3-0.1,0.4-0.2c1.7-0.7,3.2-1.7,5.2-1.4c5.5,0.7,11,1.1,16.4,1.8
					c16.5,2.1,32.4,7.2,48.6,11c10.2,2.5,20.2,6,28.7,14.1c0.3-6.4,0.6-12.2,3.9-17.2c1.4-2-0.7-2.1-1.8-2.5
					c-4.6-1.6-8.6-4.2-12.3-7.4c-3.9-3.3-7.7-6.8-12.6-8.8c-3.4-1.4-6.5-3.4-9-6.1c-7.2-7.9-16.4-11.1-26.6-12.2
					c-2.8-0.3-5.3-1.2-7.5-3.3c0.5-0.3,1-0.5,1.5-0.6c1.8-0.6,3.5-0.7,5.2-0.7c11.1,0.7,21.1,3.9,29.2,12.1
					c2.9,2.9,5.9,6.2,10.4,6.4c16.5,0.6,32.9,1.4,49.4,1.4c6.6,0,12.1,1.7,17,5.8c8.9,7.5,19.6,12.7,27.1,22.7
					c0-7.8,0.4-14.8-0.1-21.7C546.2,254.9,556.8,236.6,571,231.8z M575.8,190.4c-4.9-0.6-8.8-0.8-10.8,4.3c-0.8,2.1-0.5,2.6,1.7,2.7
					C571.5,197.6,573,193.9,575.8,190.4z M551.1,325c-1.3-1.7-3.1-2-4.5-2.8c-17-8.4-35.8-13.5-49.4-27.9c-0.5-0.4-0.8-0.7-1.7-0.6
					c-3.5,0.5-6.2,4.6-6.9,10c-0.5,4.2,2.4,3.1,4.6,3.6c1.8,0.4,3.4,1.4,5.1,2C515.3,315.5,532.4,322,551.1,325z M489,168.9
					c2.8-9,3.1-18.3-3.8-24.8c-7.1-6.7-15.9-12.4-27-9.2c-3.7,1-7.4,2-11.2,2.6c-19.7,3.3-39.5,3-59.3,3.4c-7,0.1-14.1,0.4-20.9-0.9
					c-14.8-2.8-29.7-5-44.3-9c-1.4-0.4-2.9-0.7-4.4-0.8c-11-1.1-22-2.1-33-2.2c-1.3,0-1.6-1.9-0.3-2.2c4.3-1.2,8.6-2.2,13-2.2
					c19.3-0.1,37.8,5.1,56.5,8.7c16.6,3.2,33.1,2.2,49.7,2.6c1.2,0,2.5,0.1,2.2-1.7c-0.6-3.3,2.3-7.2-2.6-9.7
					c-2.8-1.5-2.1-4.5-0.6-7.1c0.5-0.8,2.1-1.1,0-2.7l1.5-1.7c0.3,0.3,0.7,0.5,1.1,0c0.5-0.6,1-1.5,0.9-2.2
					c-0.6-3.9-0.7-7.8-5.3-9.8c-2.8-1.2-6.5-2.3-5.4-7.1c0.3-1.3-1.9-3.2-3.5-2c-4.3,3.2-8.8,3-13.8,1.7l-2.9-0.3
					c0.2-0.4,0.4-1,0.5-1.6c0.1-2.2-2.9-1.4-4.4-2c-2.3,0.4-4.6,0.5-4.2,3.7c0.2,1.4,0,3,2,2.8l-0.1,2.3c-1.6-0.1-3.1-0.8-4.2-2.4
					c-1.3-1.6-1.6-1.5-3.2-0.7c-1.4,0.7-2.8,1.3-4.1,1.6l-0.4-2.2c1.9-0.2,4.4-0.8,4.3-2.8c-0.2-2.3-2.8-2.7-4.8-2.9l0.3-2.5
					c1.1,0,2.1,0.2,3.3,0.9c2.6,1.6,4.7,2.2,7.1-0.3c0.7-0.8,2-0.9,3.1-1.4c-4.9-7.6-0.9-13.9,3-19.8c1.3-2,1.2-2.4-0.2-4.1
					c-2.1-2.7-5.3-4.9-5.5-8.7c-0.1-2.8,0.7-4.8,2.3-6.2c1.4-1.2,3.5-1.9,6.1-1.9l0.1,2.2c-4.5,0.2-6.8,4-4.2,7.3
					c2.9,4.3,6.7,7.3,11.6,8.9c0.6,0.2,1.3,0.4,1.9,0.5c4.2,1,7.4-1,8.5-5.3c0.6-2.6-2.9-9.4-5.3-10.4c-1-0.3-1.8-0.6-2.5,0.6
					c-0.5,0.9-0.5,1.5-0.1,2l-1.6,1.7c-0.2,0-0.8,0.6-1,1.1l-1.8-0.6c0.2-1.8,0.3-3.3,0.5-4.9c0,0,0.1,0,0.1,0
					c0.7-5.2,2.7-10,5.9-15.2c-7.3,3.4-13.6,7.6-19.6,12c-4.7,3.5-9.3,7-14.1,10.4c-7.9,5.6-13.7,13.1-16.1,22.7
					c-0.6,2.1-3.2,4.1-2.1,5.8c0.7,1.1,1.6,1.1,2.7,0.8l0.4,2.6c-1.6,0.2-3.2,0.6-3.2,2.7c0,0.7,0.3,1.3,0.8,1.7l-2.6,0.3
					c-2.9-4.3-6.7-2.7-8.8-0.8c-6.6,6.1-14.8,8.8-22.6,12.3c-18.1,8-37.3,13.1-54.7,22.7c-16.8,9.1-35.3,11.5-53.7,14.1
					c-15.2,2.1-30.4,3.6-45.6,5.6c-12.3,1.6-24.5,1.9-36.8,0.1c-6.9-1-13.8-3.1-20.5,1c-0.1,0-0.5,0.3-0.6,0.3
					c-2.7,0.8-4.5,2-5.7,3.2c0,0,0,0,0,0c-0.3,0.2-0.6,0.5-1,0.9c-5,4.6-7.3,14.8-5.5,23.9c0.8,4.2,2.5,8.2,5.3,11.3
					c7.8,8.9,17.9,10.2,28.3,6.5c17.4-6.3,34.6-3.2,51.8-0.3c3,0.5,6.3,1.2,9.1,3c1,0.6,0.4,2.1-0.7,2.1c-4.8-0.2-9.6-0.8-14.7-0.4
					c-0.8,0.1-1.3,1-0.9,1.7c2.5,4.4,4.5,8.6,5.2,13.1c2.4,14.7,12.9,23.9,23.2,32.5c9.9,8.4,19.8,17.3,32.5,21.8
					c0.5,0.1,0.9,0.4,1.3,0.7c0.9,0.8,1.8,1.6,1,3s-1.8,1-3,0.5c-1.4-0.6-2.9-1-4.6-1.6c-1.3-0.4-2.1,1.4-0.9,2.1c0,0,0,0,0,0
					c2.8,1.5,4.1,3.9,5.1,6.5l-2.5,0.9c-3.7-3.3-6.9-6.1-9-11.3l-2-0.2c0.5-0.5,1.1-0.9,2-1.3c-1.1-0.7-1.7-1.2-2.4-1.7
					s-1.2-1.5-2.4-1.1c-0.6,9.8-0.6,9.8,2.6,13.4l-0.1,0c2.5,5.1,6.6,9.4,5.5,16c-0.2,1.6,3.9,3.2,6.5,3.7c0.3,0,0.8-0.6,1-1
					c0.5-1.2-0.7-1.3-1.3-1.6c-3.1-1.6-5.1-4.3-4.2-7.6c0.1-0.4,0.2-0.8,0.2-1.1l1.4,0.1c-0.2,1.8,1,3.3,2.1,4.6
					c1.1,1.3,2.5,2.3,4.3,1.4c0.4-0.2,0.9-1,0.8-1.1c-0.4-0.6-0.9-1.1-1.4-1.7l2.5-1.5c0.5,0.7,1.1,1.3,1.8,1.8
					c0.4,0.3,0.6,1.5,0.3,1.9c-1.7,2.7-0.3,3.9,2.1,4.9c2.2,0.8,2.5,4.2,5.1,4.4c11.1,0.6,22.2,2.1,33.2,2.2
					c24.8,0.1,49.6-0.3,74.4-0.4c1.5,0,3.4,0.5,4.4-2c3-7.3,9.1-12.4,13.6-18.7c1.1-1.5,1.8-2.2,1.2-4.5c-2-7.5,1.4-12.6,8.7-15.4
					c1.6-0.6,5.5-1.9,2.7-5.6c-0.9-1.2-0.2-2.6,0.5-3.7c2.6-4.1,6.1-7,11.2-7.4c0.9-0.1,2.3,1.3,2.5-1c0.4-4.2,3.8-5.6,7.1-6.8
					c4.5-1.7,9,1.2,12.8,0.8c3.5-0.4,7-6.2,11.7-6c4.4,0.2,5-2.3,5.5-5c0.8-4.5,2.7-8.1,6.2-11c0.6-0.5,2.2-0.6,1.2-2.1
					c-4.1-6.5,0.4-11,4.3-14.7c3-2.9,5.3-5.7,7-9.6c0.3-0.7-0.1-1.5-0.8-1.6c-8.4-1.4-16.2,0.5-23.9,3.6c-5,2-9.9,4.5-14.9,6.8
					c-1.2,0.6-2.5,1.3-3.5-0.2c-1.2-1.8,0.2-3,1.4-3.7c9-4.8,18-10,28.5-11.3c10.5-1.3,20.4,1.7,30.5,3.7
					C474.3,188.9,483.9,185.3,489,168.9z M442.9,189.1c0-0.8-0.3-1.7-1.6-1.7c-1.8,0.1-1.5,1.5-1.5,2.6c0,0.9-0.7,2.3,0.9,2.3
					C442.5,192.3,442.6,190.6,442.9,189.1z M430.6,208.4c4.2-2.1,6.6-4.9,7-9.2C434,201.1,430.5,203.1,430.6,208.4z M429.7,297.9
					c7,1.9,6.9,2.1,8.6-5.3c-9.1-2.1-18.1-4.1-27.1-6.1c-3.1-0.7-5.2,0.6-7.1,3.1c1.9,0.4,3.6,0.4,5,1.1
					C415.7,294,422.7,296,429.7,297.9z M423.2,226.1c7.3-4.5,7.7-5.3,5.5-11.1C425.1,217.9,423.2,221.4,423.2,226.1z M420.8,133.9
					c1.5,0.8,2.9,0,5.4,0.1c-2.3-2-3.6-2.5-4.9-1.3C421,132.9,420.8,133.9,420.8,133.9z M425,111.3c0.1-1,0.8-2.3-0.7-2.4
					c-2.6-0.2-2.4,2.2-2.8,3.8c-0.3,1.2-0.6,3.4,1,3.2C424.9,115.7,424.2,112.8,425,111.3z M421.3,104.3c1.4,0.1,2.4-0.4,2-1.7
					c-0.9-2.7-1.3-6-5.1-6.4c-1.4-0.1-2.9,0-2.5,2C416.3,101.4,418.7,103.2,421.3,104.3z M420.2,128.4c1.3,0.1,2.6-0.4,2.2-1.9
					c-0.5-2.6-1.9-4.8-3.8-6.5c-2,0.3-2.3,1.7-2.3,3.1C416.3,125.8,416.9,128.1,420.2,128.4z M417,113.7c-1.1-3.4-1.6-6.1-3.4-8.4
					c-0.9-1.1-2.3-1.6-3.5-1.2c-1.9,0.6-0.9,2.3-0.7,3.4C410.1,111.1,412.6,112.8,417,113.7z M414.5,92.6c0.5-2.1,0.8-4.1-2.1-4.3
					c-1.5-0.1-3.8-1.4-4.5,0.2c-1.1,2.6,2.1,2.7,3.3,4c0.6,0.7,1.5,1.1,2.8,2C414.3,93.4,414.5,93.1,414.5,92.6z M412.9,118.1
					c0.2,0.1,1.3-1,1.2-1.3c-0.6-2.1-3-2.1-4.5-3.1c-0.2-0.1-0.5,0.2-1.1,0.4C409.4,116.1,411.1,117.2,412.9,118.1z M412.4,134.4
					c1-0.1,1.4-0.7,1.2-1.7c-0.4-1.7-1.7-2.4-3.2-2.6c-1.4-0.1-1,1-0.9,1.7C409.7,133.6,410.5,134.6,412.4,134.4z M413.4,100.7
					c-0.9-1.5,0.8-3.6-1.1-5.4c-1.6,0.8-0.4,3.1-2.1,3.6c-2.5-5.2-5.5-6.4-11-4.3c3.5,2.6,6.5,6,10.9,6.4
					C411.1,101,412.2,100.9,413.4,100.7z M407.8,237.8c3.5-1.1,5.6-2.6,7.4-4.6C412.3,233.4,410,234.4,407.8,237.8z M410.7,123.1
					c0-2.8-1.5-4.5-3.8-5.2c-1.4-0.5-2.1,1.4-1.9,2.3c0.4,2.5,2.3,4.4,4.4,5.4C410.6,126.1,410.5,123.9,410.7,123.1z M400.8,90.3
					c1.1-0.1,2.9,0.8,2.7-1.6c-0.2-3.2-3-2.4-4.6-3.2c-1.5,0.2-3.6,0.2-3.4,1.6C395.9,89.8,398.4,90.3,400.8,90.3z M402.6,239.9
					c-7.6-3.3-12.6-2.6-15.6,2.3C392.2,242.6,397.3,243.1,402.6,239.9z M391.5,87.6c0.5-1.8-1.7-1.5-2.9-1.5c-2.9,0-6.1,0.4-6.9,3.4
					c-0.4,1.5,2.4,1.5,4.4,1.8C388.4,91.1,390.8,90.1,391.5,87.6z M376.5,86.3c4,1.7,5.4-3.9,9.1-3.2c-1-2.7-2-4.5-4.9-2.5
					c-2.2,1.5-4.7,1-7.3,0.8C373.5,83.8,374.6,85.6,376.5,86.3z M383.5,248.1c0.4-0.7,1.2-1.3,0.8-2.2c-0.6-1.1-1.8-0.5-2.6-0.7
					c-3.7,0-6.1,2.3-8.3,4.7c-0.8,0.8-1.9,1.7-1.1,3c0.8,1.3,2.2,1.5,3.5,1.1C379.1,253.1,381.6,250.9,383.5,248.1z M382.1,76.2
					c0.3-1.7-2.5-2.4-4.2-2.6c-2.1-0.2-4,0.9-4.3,3.2c-0.3,1.8,1.1,2.5,3.5,2.5C378.4,78.3,381.7,78.7,382.1,76.2z M369.5,269.3
					c1.9-3,2.4-6.2,1.4-10.9C368.9,262.6,368.8,266,369.5,269.3z M365.9,288c2.5-3.5,2-6.7,1.6-10.7
					C365.3,280.9,364.8,284,365.9,288z M362.9,305.3c2.9-3.2,2.4-6.8,2.1-10.3C363.1,298.1,359.9,301,362.9,305.3z M364.6,265.1
					c0.1-0.6,0-1.5-0.4-1.8c-0.8-0.5-1.5,0.1-2.1,0.7c-2.8,2.9-2.6,6.7-3.3,10.2c-0.3,1.7-0.2,2.8,2,3.1c2.3,0.3,2-1.4,2.2-2.4
					C363.7,271.8,364.1,268.5,364.6,265.1z M361.6,293.6c2.6-3.7-1.5-5-1.4-7.7c-1.1,3-5,3.3-5.8,6.3c-0.8,2.9-2.2,5.4-4.9,7.8
					C355.9,301.9,358.5,298,361.6,293.6z M355,288.1c1.8-2.8,4.4-5,5.7-9.2c-4.6,1.4-5.9,5.2-8.4,7.6c-1.2,1,0,1.5,0.7,2.2
					C354.2,290,354.5,289,355,288.1z M353.9,342.3c2.2-2.9,1.7-5.3,1.5-7.6C353.2,336.6,353.2,338.9,353.9,342.3z M350.2,352
					c0.1-0.1-0.1-0.3-0.5-1c-1.8,1.7-2.7,3.5-2.9,5.7c0,0.2,1,0.7,1.2,0.6C349.7,356,349.6,353.9,350.2,352z M344.9,299.5
					c2.6-2.1,5.5-4.1,6.2-8.8C347.5,293.5,345.7,296.1,344.9,299.5z M337,376.3c4.5-4.2,5.8-8.6,5.9-13.5
					C340.4,366.6,335.6,369.4,337,376.3z M335.1,80.4c0-1.9,0-3.6,0-5.7C330.3,77.3,330.3,77.3,335.1,80.4z M328.2,75.8
					c3.5-2,5.7-3.3,6.8-6.7C331.4,70.2,330.1,72.3,328.2,75.8z M331.9,85.2c0.4,0,1-0.7,0.7-1.5c-1.6-3.5-5.3-3.3-8.3-4.3
					c-0.6-0.2-1.6,0.1-1.5,0.9c0.2,3.1,3.1,3.1,5.1,3.9C328.9,84.6,330.1,84.8,331.9,85.2z M326.4,390.6c3.9-2.1,4.2-6.6,7.1-10.1
					C328.1,381,325.1,385.5,326.4,390.6z M321.8,457.9c1.2-3.3,0.5-6.4-1.3-9c-2.3-3.5-5.3,0.7-8.4-0.9c0.7,1.6,1.5,2.6,1.3,3.4
					c-0.9,4.9,4,5.2,6.1,7.6C320.6,460.3,321.3,459.1,321.8,457.9z M314.2,403.8c3-1.8,3.8-4.4,4-7.2
					C316.2,398.4,313.8,400,314.2,403.8z M316.9,469c6.8-6.5-3.3-6.6-3.2-11.8C312.5,460.5,312.5,460.5,316.9,469z M312,476.4
					c4.7-4.8-2.4-7.6-1.1-11.3c-1.6,1-3.1,2-2.6,3.3l-1.5,0.3c-1.9,2.1-4.4,3.4-2.9,5.3c2.6,3.6,2.2,7.7,2.8,12.2
					c3.2-3.1,3.4-6.1,2.7-9.1L312,476.4z M302.3,441.8c7.9,5.2,7.9,5.2,13.2,1.5C307.7,436.6,307.7,436.6,302.3,441.8z M310.4,454.5
					c0.3-1.3,0.4-2.9-0.8-3.7c-6.6-4.2-12.2-10.7-21.7-9.3c-7.7-0.8-14.4,2.8-20.9,7.2c-4.7,3.2-5.9,8.3-5.1,13.7
					c0.8,5.4,3.2,10.2,8.5,12.7c6.5,3.1,13.6,4.2,20.5,6c2.4,0.6,4.7,0.9,6-2.4c2.6-6.4,6-12.3,11-17.3
					C309.5,459.9,309.8,457,310.4,454.5z M308.7,408.3c0.1-0.2-0.1-0.6-0.4-1.5c-2.2,1.9-4.6,3.4-4.6,6.6c0,0.5,0.6,1.9,1.6,1.3
					C307.6,413.1,308.3,410.8,308.7,408.3z M303.8,436c1.5-0.5-1.1-2-1.8-3c-1.4-1.9-3-2.3-4.6,0c-1.5,2-3.2,3.7-4.5,5.3
					c1.2,0.4,3.1,0.9,4.9,1.5C301.4,441,301.3,436.8,303.8,436z M300.7,489.8c0.8-0.1,1.9-0.5,1.4-1.5c-1.1-2.5,0.3-5.5-1.2-7.9
					c-0.5,0-1,0-1.4,0c0,2.6,0,5.2,0,7.8C299.5,489,299.4,490,300.7,489.8z M296.1,490.3c2.7-1.4,0.8-3.8,1.6-6.6
					c-2.4,2.3-3.1,4.2-2.9,6.5C294.8,490.3,295.8,490.5,296.1,490.3z M301.7,418.9c-4.2-3.6-5.2-3.5-10.9,0.9
					C294.9,421.4,298.4,421.8,301.7,418.9z M289.7,437c1.5-3.2,3.6-5.4,6.6-8c-6.5-2.8-11.6,0.7-15.3,10.1
					C284,437.5,288,440.5,289.7,437z M288.4,307c-6.9,0-13.2,0-19.4,0c-0.9,0-1.9,0.1-2.1,1c-1.2,5-6,7.5-8.2,12.3
					C269.4,317.4,278.2,311.4,288.4,307z M291,485c-6.3-4-7.2,1-8.8,4.4C287.1,491.6,290.4,490.6,291,485z M285.3,418.3
					c0.1-2.4-1.2-4-3.2-5.1c-2-1-4.1-2.1-7-2c0.9,2.1,1.7,3.9,2.5,5.6c1.1,2.4,3.1,3.3,5.6,3.2C284.2,420,285.2,419.5,285.3,418.3z
					 M276.4,439.5c1.5-5.6,5.6-8.7,10.2-12c-12.6,0.8-15.1,3.3-15.7,15C273,441.8,275.9,441.4,276.4,439.5z M280.9,483
					c-6-3.7-6.7,3.2-10,4.7C275.5,489,278.4,486.4,280.9,483z M270.7,409.9c0.6-1,0-2.3-0.9-3.1c-2.1-1.9-4-4-7.6-4.7
					c1.2,3.4,1.5,6.7,5,8C268.4,410.5,269.8,411.3,270.7,409.9z M272.8,479.6c-2.4-0.4-4.4-2.6-6.4-1c-3.8,3-7.9,2-12.3,1.3
					C261.4,486.3,267.5,486.3,272.8,479.6z M262.1,448c8.4-2.5,3.7-9.4,7.5-14.1C260.7,436.5,264,443,262.1,448z M250.2,474.5
					c4.3,1.4,9,3.3,14.8,1.1c-2.9-2.1-3.2-6.6-5.7-6.4c-4.6,0.2-8.2-1.4-12-4.2C247.6,469,246.7,473.4,250.2,474.5z M258.4,457.6
					c2.6-6.1-1.1-11.5,0.4-17.7c-4.9,3.5-6.5,7.8-5.1,11.9l-2.7,0.7c-0.3-0.8-0.6-1.5-1-2.2c-2.8,8.4-0.5,12.2,9,15.1
					c-0.3-2-0.6-5.6-0.9-5.6c-0.2,0-0.3,0-0.5,0l0.1-2.6C258,457.3,258.2,457.5,258.4,457.6z M256.6,408.5c2.1-1.3,2.1-3.5,1.4-5.7
					c-1.3-4-4.4-6.3-8.2-8.4c-2.5,4.7-1.6,8.7,1.9,12.1C253.1,407.8,254.2,410,256.6,408.5z M225.5,299.9c0.3-1.3-4.8-5.5-6.5-5.4
					c-2,0.1-1.7,1.7-1.7,2.9c0,2.9,1,4.8,4.7,4.6C223.2,301.6,225.2,302,225.5,299.9z M195.4,266c1.7-2.7,1.4-5.6-0.1-7.9
					c-1.5-2.3-3.6-4.2-7.4-6.1c1.7,3,0.7,5.1,0.2,7.2c-0.9,4,2.3,5.4,4.5,7.4C193.6,267.5,194.6,267.1,195.4,266z M88.9,315
					c6.1-1.6,11-6.9,10.6-11.5c-0.5-6.7-2.5-10.6-8.9-12.7c-1.2-0.4-2.2-1.1-3.3,0.6c-0.9,1.4-0.5,2.2,0.5,3.3
					C93.4,300.9,93.8,307.5,88.9,315z M85.3,276.5c3.5,5.4,3.5,5.4,8.6,3.9C90.8,279,90,274.6,85.3,276.5z M88,306.9
					c0.1-2.8-0.2-5.8-2.4-8.3c-1.5-1.7-2.2-2.3-4.7-1.2c-15.3,7-30.8,13.7-46.6,20.6c1,0.6,1.5,1.1,1.7,1
					c15.9-2.4,31.7-5.4,47.7-6.9C87,311.8,88,309.3,88,306.9z M80.6,280.1c0.7,3.4,3.3,0.5,5.1,1.1c-1.3-1.8-0.4-5.3-3.9-4.7
					C79.4,277,80.4,279.1,80.6,280.1z M89.2,284.1c-2.9,1.6-5.8,0.4-8.9,1.6C85.1,290.5,85.1,290.5,89.2,284.1z M79.4,278.1
					c0-0.8-0.6-1.1-1.2-1c-1.9,0.4-2.4,2.1-3.1,3.5c-0.4,0.9,0.8,1.3,1.6,1.2C78.9,281.6,78.4,279.4,79.4,278.1z"/>
				<path class="st1" d="M590,205.7c11.1-2.4,21.6-7.1,32-9c-6.5,3.9-13.8,7.8-20.9,12.1c-2.8,1.7-5.5,3.6-8.3,5.5
					c-1.1,0.9-2.3,1.6-3.1,2.9c-0.4-2-1.3-3.8-2.5-5.6C585,207,584.9,206.8,590,205.7z"/>
				<path class="st2" d="M578.9,206.9c4.2,5.7,7.1,11.9,5.9,19.3c-0.8,4.4-1.7,5.8-6.2,8.1c0.8-8.9-4-15.3-7.9-22
					c-1.4-2.4-1.3-3.9,1.1-5.1C574.1,205.9,576.7,203.9,578.9,206.9z"/>
				<path class="st3" d="M579.9,191.4c1.2,0.7,0.4,1.6-0.2,2.4c-2.9,3.7-4.1,9.2-10.2,9.4c-0.4-0.6-0.7-1-0.9-1.6
					c2.6,0,4.2-1.6,5.4-3.8c1-1.9,2.3-3.6,3.4-5.5C578,191.3,579,190.9,579.9,191.4z"/>
				<path class="st1" d="M573.4,225.9c1.3,2.9,2.1,4.2-2.4,5.8c-14.2,4.9-24.8,23.2-23.7,38.1c0.5,6.9,0.1,13.9,0.1,21.7
					c-7.5-10-18.2-15.2-27.1-22.7c-4.9-4.1-10.4-5.8-17-5.8c-16.5,0-32.9-0.8-49.4-1.4c-4.5-0.2-7.5-3.5-10.4-6.4
					c-8.1-8.2-18.1-11.4-29.2-12.1c-1.7-0.1-3.4,0-5.2,0.7l-2.1-1.3c0.3-0.2,0.6-0.3,1-0.5c2.8-1.5,6.4-2.3,9.3-4.2
					c2.2-1.5,4.1-3.2,5.3-5.8c1.3-2.9,4.9-3.4,7.2-5.4c3.4-2.9,5.2-5.9,3.9-10.4c-0.6-2-0.7-3.6,1.8-4.8c3.2-1.6,4.8-4.9,6.5-7.8
					c8.4,11.8,19.9,17.6,34,19.3c5.7,0.7,10.3-2.2,15.4-3.5c1.3-0.3,2.6-1.7,3.8,0.3c9.4,15,22.6,13.1,36.5,8.2
					c9.4-3.3,18.9-6.3,28-10.4c0.1-0.1,0.3-0.1,0.5-0.1c2.6-0.3,4-4.6,6.8-2.9c2.9,1.8,3.8,5.6,5.5,8.6
					C573,223.9,573,225.1,573.4,225.9z"/>
				<path class="st4" d="M565,194.6c2-5.1,5.9-4.9,10.8-4.3c-2.8,3.5-4.3,7.3-9.1,7C564.5,197.3,564.2,196.8,565,194.6z"/>
				<path class="st3" d="M569.5,203.1c0,0,0,0.1,0.1,0.1c-2.8,0.6-5.3-0.1-7.4-2.2c2.1,0.1,4.2,0.3,6.4,0.5
					C568.9,202.1,569.1,202.6,569.5,203.1z"/>
				<path class="st5" d="M546.6,322.1c1.4,0.8,3.2,1.1,4.5,2.8c-18.7-2.9-35.8-9.4-52.8-15.7c-1.7-0.6-3.3-1.6-5.1-2
					c-2.2-0.5-5.1,0.6-4.6-3.6c0.7-5.4,3.4-9.5,6.9-10c0.9-0.1,1.2,0.2,1.7,0.6C510.8,308.6,529.6,313.8,546.6,322.1z"/>
				<path class="st0" d="M500.7,278.4c2.3,1.6,4.2,3.6,3.6,6.6c-0.6,3.1-2,5.7-6.1,5.9l-2.7-0.1c0.2-0.1,0.5-0.1,0.7-0.2
					c-4.1-1.2-7.5-2.8-10.2-5.5c-1.1-1.1-2-1.5-2.8-1.3l-0.4-2.3c-2-3.8-0.8-6.9,0.9-10.3C499.5,274.7,497.5,276.2,500.7,278.4z
					 M500.4,285.5c0.5-1.3-0.1-2.3-1.1-3c-3.3-2.4-6.8-4.6-10.6-6.2c-1.7-0.7-2.6-0.4-2,1.7c1.3,4.6,6.1,8.5,11.6,8.7
					C498.7,286.5,500,286.9,500.4,285.5z"/>
				<path class="st6" d="M499.3,282.5c1,0.7,1.6,1.7,1.1,3c-0.4,1.4-1.7,1.1-2.1,1.2c-5.5-0.2-10.3-4.1-11.6-8.7
					c-0.6-2.1,0.3-2.4,2-1.7C492.5,277.9,496,280,499.3,282.5z"/>
				<path class="st2" d="M496.2,290.6c-0.2,0.1-0.5,0.1-0.7,0.2c-7.9,2.5-10.9,7.4-10.1,15.9c0.1,1,1.1,2.1-0.5,2.9
					c-1.4,0.7-2.3-0.2-3.1-0.9c-2.3-2.1-4.2-4-3.7-7.9c0.7-4.9,0.4-9.9,2.7-14.5c0.7-1.4,1.5-2.3,2.4-2.5c0.8-0.2,1.7,0.2,2.8,1.3
					C488.7,287.9,492.1,289.5,496.2,290.6z"/>
				<path class="st5" d="M485.2,144.1c6.9,6.5,6.6,15.8,3.8,24.8c-5.1,16.3-14.7,19.9-33.5,16.1c-10.1-2-20-5-30.5-3.7
					c-10.5,1.3-19.5,6.5-28.5,11.3c-1.2,0.7-2.6,1.9-1.4,3.7c1,1.5,2.3,0.8,3.5,0.2c5-2.3,9.9-4.8,14.9-6.8c7.7-3.1,15.5-5,23.9-3.6
					c0.7,0.1,1.1,0.9,0.8,1.6c-1.7,3.8-4,6.7-7,9.6c-3.9,3.7-8.4,8.2-4.3,14.7c1,1.5-0.6,1.6-1.2,2.1c-3.5,2.9-5.4,6.5-6.2,11
					c-0.5,2.7-1.1,5.2-5.5,5c-4.7-0.2-8.2,5.6-11.7,6c-3.8,0.4-8.3-2.5-12.8-0.8c-3.3,1.2-6.7,2.6-7.1,6.8c-0.2,2.3-1.6,0.9-2.5,1
					c-5.1,0.4-8.6,3.3-11.2,7.4c-0.7,1.1-1.4,2.5-0.5,3.7c2.8,3.7-1.1,5-2.7,5.6c-7.3,2.8-10.7,7.9-8.7,15.4c0.6,2.3-0.1,3-1.2,4.5
					c-4.5,6.3-10.6,11.4-13.6,18.7c-1,2.5-2.9,2-4.4,2c-24.8,0.1-49.6,0.5-74.4,0.4c-11-0.1-22.1-1.6-33.2-2.2
					c-2.6-0.2-2.9-3.6-5.1-4.4c-2.4-1-3.8-2.2-2.1-4.9c0.3-0.4,0.1-1.6-0.3-1.9c-0.7-0.5-1.3-1.1-1.8-1.8c-1.9-2.5-2.6-5.8-3.8-8.8
					c-1-2.6-2.3-5-5.1-6.5c0,0,0,0,0,0c-1.2-0.6-0.3-2.5,0.9-2.1c1.7,0.5,3.1,1,4.6,1.6c1.2,0.5,2.2,0.9,3-0.5s-0.1-2.2-1-3
					c-0.4-0.3-0.8-0.6-1.3-0.7c-12.7-4.5-22.6-13.4-32.5-21.8c-10.3-8.6-20.8-17.8-23.2-32.5c-0.7-4.5-2.7-8.7-5.2-13.1
					c-0.4-0.7,0.1-1.6,0.9-1.7c5.1-0.4,9.9,0.2,14.7,0.4c1.1,0.1,1.6-1.5,0.7-2.1c-2.8-1.8-6.1-2.5-9.1-3c-17.2-2.9-34.4-6-51.8,0.3
					c-10.4,3.7-20.5,2.4-28.3-6.5c-2.7-3.1-4.4-7.1-5.3-11.3l0.2-0.1c0.5,2.2,1.8,4.2,3.9,5.6c7.3,5.2,14.9,5.5,23.1,2.2
					c7.3-2.9,8.9-9.4,9.1-15.8c0.4-10.8-6.4-22.8-21.6-19.4c-0.9,0.2-1.6,0.3-2.2-0.5l-0.4-0.1c0.1,0,0.5-0.3,0.6-0.3
					c6.7-4.1,13.6-2,20.5-1c12.3,1.8,24.5,1.5,36.8-0.1c15.2-2,30.4-3.5,45.6-5.6c18.4-2.6,36.9-5,53.7-14.1
					c17.4-9.6,36.6-14.7,54.7-22.7c7.8-3.5,16-6.2,22.6-12.3c2.1-1.9,5.9-3.5,8.8,0.8c1.8,2.8,4.6,4,7.7,3.4
					c0.8-0.2,1.6-0.4,2.5-0.8c1.7-0.8,2.5-0.6,4.1,0.6c2.8,2.1,5.9,2.6,9,2c1.4-0.3,2.8-0.8,4.1-1.6c1.6-0.8,1.9-0.9,3.2,0.7
					c1.1,1.5,2.6,2.3,4.2,2.4c1.6,0.1,3.3-0.4,4.9-1.2c2.2-1.2,3.5-0.4,5.3,0.6c8.2,5,15.8,11,23.5,16.7c2.1,1.6,0.5,1.9,0,2.7
					c-1.5,2.6-2.2,5.6,0.6,7.1c4.9,2.5,2,6.4,2.6,9.7c0.3,1.8-1,1.7-2.2,1.7c-16.6-0.4-33.1,0.6-49.7-2.6
					c-18.7-3.6-37.2-8.8-56.5-8.7c-4.4,0-8.8,0.9-13,2.2c-1.3,0.4-1,2.2,0.3,2.2c11,0.1,22,1.1,33,2.2c1.5,0.1,3,0.4,4.4,0.8
					c14.6,4,29.5,6.2,44.3,9c6.8,1.3,13.9,1,20.9,0.9c19.8-0.4,39.6-0.1,59.3-3.4c3.8-0.6,7.5-1.6,11.2-2.6
					C469.3,131.8,478.1,137.4,485.2,144.1z M486.7,159.9c-0.4-3.8-1.7-8.2-4.7-11.9c-4.8-5.8-9.8-6.8-16.9-4.4
					c-9.2,3.1-9.9,10.8-10.6,18.5c-1,11.4,8.5,19.5,19.8,16.9C482.1,177.1,486.4,170.9,486.7,159.9z M374.6,218.1
					c4.1-4.5,4.1-7.3,0.1-11.6c-4.7-5.1-9.4-10.2-14.8-14.7c-11.1-9.3-23.5-16.5-37.2-20.6c-21.4-6.4-43-6.6-65.2-3
					c-16.8,2.7-33.1,5.2-47.9,14c-7.6,4.5-15.5,8.4-22.3,14.1c-7.2,6.1-7.4,10.5-0.8,17.1c1.8,1.8,3.7,3.5,5.8,4.7
					c4.5,2.6,8.8,5.4,13.2,8.2c7.3,4.6,14.6,9.1,22.5,12.6c13.9,6.2,27.2,13.5,43.2,11.8c3.6-0.4,7.3-0.1,11-0.1
					c1.4,0.1,2.7,0.2,4.1,0.2c17.6,0.6,34.6-2.4,50.9-9.5c6.5-2.8,12.9-5.6,18.9-9C362.8,228.6,369.1,224.1,374.6,218.1z"/>
				<path class="st7" d="M482,148.1c3,3.7,4.3,8.1,4.7,11.9c-0.3,11-4.6,17.2-12.4,19.1c-11.3,2.6-20.8-5.5-19.8-16.9
					c0.7-7.7,1.4-15.4,10.6-18.5C472.2,141.3,477.2,142.3,482,148.1z M479.4,169.3c3.1-3.8,2.9-15.2-0.4-18.9
					c-1.2-1.4-2.8-2.1-4.7-2.5c-9.4-1.8-14.8,3.2-14.9,14c0,7.1,1.3,9.8,5.8,11.3C470.9,175.1,475.7,173.9,479.4,169.3z"/>
				<path class="st8" d="M479,150.4c3.3,3.7,3.5,15.1,0.4,18.9c-3.7,4.6-8.5,5.9-14.2,3.9c-4.5-1.5-5.8-4.2-5.8-11.3
					c0.1-10.8,5.5-15.8,14.9-14C476.2,148.3,477.8,148.9,479,150.4z M473.1,157.4c1.7-0.5,3.9-0.9,3.5-3.3c-0.5-2.8-3-1.8-4.8-1.9
					c-3.9-0.7-6.8,0.8-8,4.4c-1.2,3.3-2.1,7,0.9,9.8c2.7,2.6,6.1,2.1,9.4,1c1.4-0.5,2.7-1,2.4-2.7c-0.2-1.6-1.4-2.1-2.9-2.1
					s-3.8,1.2-4.2-1.2C469,159.1,471.1,158.1,473.1,157.4z"/>
				<path class="st5" d="M475.6,282.3c1.1,0.4,3.2,0.5,1.8,2.5c-3.3,5-3.6,10.8-3.9,17.2c-8.5-8.1-18.5-11.6-28.7-14.1
					c-16.2-3.8-32.1-8.9-48.6-11c-5.4-0.7-10.9-1.1-16.4-1.8c-2-0.3-3.5,0.7-5.2,1.4c-0.1,0.1-0.3,0.2-0.4,0.2
					c0.1-0.1,0.2-0.2,0.3-0.3c-0.9-0.3-1.9-0.7-2.8-1c3.3-4.4,4.6-9.3,4-14.7c-0.2-1.8,0.6-2.2,2-2.7c4.7-1.7,8.1-5.1,10.5-9.5
					c0.4-0.7,0.4-1.8,1.5-1.7c6.3,0.6,11.8-1.4,17.3-4.2l2.1,1.3c-0.5,0.2-1,0.4-1.5,0.6c2.2,2.1,4.7,3,7.5,3.3
					c10.2,1.1,19.4,4.3,26.6,12.2c2.5,2.7,5.6,4.7,9,6.1c4.9,2,8.7,5.5,12.6,8.8C467,278,471,280.6,475.6,282.3z"/>
				<path class="st9" d="M476.6,154.1c0.4,2.4-1.8,2.8-3.5,3.3c-2,0.6-4.1,1.7-3.7,4c0.4,2.4,2.7,1.2,4.2,1.2s2.7,0.5,2.9,2.1
					c0.3,1.7-1,2.2-2.4,2.7c-3.3,1.1-6.7,1.6-9.4-1c-3-2.8-2.1-6.5-0.9-9.8c1.2-3.6,4.1-5.1,8-4.4
					C473.6,152.4,476.1,151.4,476.6,154.1z"/>
				<path class="st2" d="M441.3,187.4c1.3,0,1.6,0.9,1.6,1.7c-0.3,1.6-0.4,3.2-2.2,3.2c-1.6,0-0.9-1.4-0.9-2.3
					C439.8,188.9,439.5,187.4,441.3,187.4z"/>
				<path class="st2" d="M437.6,199.1c-0.4,4.3-2.8,7.1-7,9.2C430.5,203.1,434,201.1,437.6,199.1z"/>
				<path class="st1" d="M438.3,292.5c-1.7,7.4-1.6,7.2-8.6,5.3s-14-3.8-20.6-7.2c-1.4-0.7-3.1-0.7-5-1.1c1.9-2.5,4-3.8,7.1-3.1
					C420.2,288.5,429.2,290.5,438.3,292.5z"/>
				<path class="st2" d="M428.7,215.1c2.2,5.8,1.8,6.6-5.5,11.1C423.2,221.4,425.1,217.9,428.7,215.1z"/>
				<path class="st2" d="M426.2,133.9c-2.5-0.1-3.9,0.7-5.4-0.1c0,0,0.2-0.9,0.5-1.2C422.6,131.4,423.9,131.9,426.2,133.9z"/>
				<path class="st2" d="M424.3,108.8c1.5,0.1,0.8,1.4,0.7,2.4c-0.8,1.6-0.1,4.4-2.5,4.6c-1.6,0.2-1.3-2-1-3.2
					C421.9,111.1,421.7,108.7,424.3,108.8z"/>
				<path class="st2" d="M423.3,102.7c0.4,1.3-0.6,1.8-2,1.7c-2.6-1.2-5-2.9-5.6-6.1c-0.4-2,1.1-2.1,2.5-2
					C422,96.7,422.4,99.9,423.3,102.7z"/>
				<path class="st2" d="M422.4,126.6c0.4,1.5-0.9,2-2.2,1.9c-3.3-0.3-3.9-2.7-3.9-5.3c0-1.4,0.3-2.8,2.3-3.1
					C420.5,121.8,421.9,123.9,422.4,126.6z"/>
				<path class="st2" d="M413.6,105.3c1.8,2.3,2.3,5,3.4,8.4c-4.4-0.8-6.9-2.6-7.6-6.2c-0.2-1.1-1.2-2.8,0.7-3.4
					C411.3,103.7,412.7,104.2,413.6,105.3z"/>
				<path class="st2" d="M412.4,88.3c2.9,0.2,2.6,2.2,2.1,4.3c0,0.5-0.2,0.9-0.5,1.9c-1.3-0.9-2.2-1.3-2.8-2c-1.2-1.3-4.4-1.4-3.3-4
					C408.6,86.8,410.9,88.2,412.4,88.3z"/>
				<path class="st2" d="M414.1,116.8c0.1,0.3-1,1.4-1.2,1.3c-1.8-0.9-3.5-2-4.4-4c0.6-0.2,0.9-0.5,1.1-0.4
					C411.1,114.7,413.5,114.7,414.1,116.8z"/>
				<path class="st2" d="M413.6,132.8c0.2,1-0.2,1.6-1.2,1.7c-1.9,0.2-2.7-0.9-2.9-2.6c-0.1-0.7-0.5-1.8,0.9-1.7
					C411.9,130.4,413.2,131.1,413.6,132.8z"/>
				<path class="st2" d="M412.3,95.3c1.9,1.8,0.2,3.9,1.1,5.4c-1.2,0.3-2.3,0.4-3.3,0.3l0.1-2.1C411.9,98.3,410.7,96.1,412.3,95.3z"
					/>
				<path class="st2" d="M415.2,233.1c-1.8,2-3.9,3.5-7.4,4.6C410,234.4,412.3,233.4,415.2,233.1z"/>
				<path class="st2" d="M410.2,98.8l-0.1,2.1c-4.4-0.4-7.4-3.8-10.9-6.4C404.7,92.4,407.7,93.7,410.2,98.8z"/>
				<path class="st2" d="M406.9,117.8c2.3,0.7,3.8,2.4,3.8,5.2c-0.2,0.9-0.1,3-1.3,2.5c-2.1-1-4-2.9-4.4-5.4
					C404.8,119.3,405.5,117.3,406.9,117.8z"/>
				<path class="st0" d="M404.5,112l-1.5,1.7c-7.7-5.7-15.3-11.7-23.5-16.7c-1.8-1-3.1-1.8-5.3-0.6c-1.6,0.8-3.3,1.3-4.9,1.2
					l0.1-2.3c0.1,0,0.2,0,0.3,0c2.3-0.4,4.8-1,5.9-2.9l2.9,0.3c9.2,5.7,18.3,11,25.5,18.8C404.2,111.6,404.3,111.8,404.5,112z"/>
				<path class="st2" d="M403.5,88.7c0.2,2.4-1.6,1.5-2.7,1.6c-2.4,0.1-4.9-0.5-5.3-3.2c-0.2-1.4,1.9-1.4,3.4-1.6
					C400.5,86.3,403.3,85.4,403.5,88.7z"/>
				<path class="st0" d="M399.4,81.4l-2.7,0.5c-2.1-1.7-3.8-2.7-5.3-3l0.5-2.9C394.8,76.7,397.4,78.1,399.4,81.4z"/>
				<path class="st5" d="M397.2,283.3c0.9,0.1,1.8,0.2,2.9,1.3c-3.7,1.1-7.3,2.2-11,3.3c-5.7,1.6-11.5,3.1-17.2,4.8
					c-2.5,0.8-3-0.4-2.1-2c3-4.8,2.3-10,1.9-15.3c0.5,1.4,1.3,1.9,2.5,1.3c-1.7,2,0.8,1.9,1.7,2.3
					C382.6,282.3,390,282.3,397.2,283.3z"/>
				<path class="st2" d="M387,242.1c3-4.9,8-5.6,15.6-2.3C397.3,243.1,392.2,242.6,387,242.1z"/>
				<path class="st2" d="M388.8,47.3c2.4,1,5.9,7.8,5.3,10.4c-1.1,4.3-4.3,6.3-8.5,5.3c-0.7-0.1-1.3-0.3-1.9-0.5l0.6-2
					c0.6,0.2,1.2,0.3,1.8,0.3c2,0,3.3-1.4,4.2-3.1c1-1.8,1.1-3.5-0.4-5c-0.8-0.8-1.7-1.6-2.7-2.1c-0.4-0.2-0.8-0.5-1-0.7
					c-0.5-0.5-0.5-1.1,0.1-2C387,46.8,387.8,47,388.8,47.3z"/>
				<path class="st2" d="M396.7,81.9c-4.5,0.6-4.7,0.6-8.9-2.5c1.2-0.5,2.4-0.7,3.6-0.5C392.9,79.3,394.6,80.2,396.7,81.9z"/>
				<path class="st2" d="M388.6,86.1c1.2,0,3.4-0.3,2.9,1.5c-0.7,2.5-3.1,3.5-5.4,3.7c-2-0.3-4.8-0.3-4.4-1.8
					C382.5,86.4,385.7,86.1,388.6,86.1z"/>
				<path class="st0" d="M389.9,52.8c1.5,1.5,1.4,3.2,0.4,5l-2.7-1.2c-1.2-2.2-1.1-4.2-3-4.9l1.6-1.7c0.2,0.2,0.6,0.4,1,0.7
					C388.2,51.2,389.1,52,389.9,52.8z"/>
				<path class="st0" d="M387.6,56.5l2.7,1.2c-0.9,1.7-2.2,3.1-4.2,3.1c-0.6,0-1.2-0.1-1.8-0.3c-4.8-1.8-9.8-10-8-14.2l-0.1-2.2
					c1.3-0.1,2.6,0,4.2,0.3c0.5,1.5,0.1,2.8-0.6,4.2c-1.1,2.1,0.2,3,2,3.5l1.8,0.6c0,0.1-0.1,0.2-0.1,0.3
					C383.5,55,384.7,56,387.6,56.5z"/>
				<path class="st5" d="M388.3,32c-3.2,5.2-5.2,10-5.9,15.2c0,0-0.1,0-0.1,0c-2.4,0.1-0.5-2.4-1.9-2.8c-1.5-0.2-2.9-0.3-4.2-0.3
					c-2.6,0.1-4.7,0.7-6.1,1.9l-1.5-2C374.7,39.7,381,35.4,388.3,32z"/>
				<path class="st2" d="M384.3,245.9c0.4,0.9-0.4,1.5-0.8,2.2c-1.9,2.8-4.4,4.9-7.7,5.9c-1.3,0.4-2.7,0.2-3.5-1.1
					c-0.8-1.3,0.3-2.2,1.1-3c2.2-2.4,4.6-4.7,8.3-4.7C382.5,245.4,383.7,244.9,384.3,245.9z"/>
				<path class="st2" d="M384.3,60.5l-0.6,2c-4.9-1.5-8.7-4.6-11.6-8.9c-2.6-3.3-0.3-7.1,4.2-7.3C374.5,50.5,379.5,58.8,384.3,60.5z
					"/>
				<path class="st5" d="M380.4,44.5c1.4,0.4-0.5,2.9,1.9,2.8c-0.2,1.6-0.3,3.1-0.5,4.9c-1.8-0.5-3.1-1.4-2-3.5
					C380.5,47.3,380.9,46,380.4,44.5z"/>
				<path class="st2" d="M377.9,73.6c1.7,0.2,4.5,0.9,4.2,2.6c-0.4,2.5-3.7,2.2-5,3.1c-2.4,0-3.8-0.7-3.5-2.5
					C373.9,74.4,375.8,73.3,377.9,73.6z"/>
				<path class="st2" d="M371.7,88.8c1.5,0.6,4.5-0.2,4.4,2c-0.1,0.6-0.2,1.1-0.5,1.6c-1,1.9-3.6,2.5-5.9,2.9c-0.1,0-0.2,0-0.3,0
					c-2,0.2-1.8-1.4-2-2.8C367.1,89.3,369.4,89.2,371.7,88.8z"/>
				<path class="st10" d="M374.7,206.6c4,4.3,4,7.1-0.1,11.6c-5.4,5.9-11.8,10.4-18.5,14.2l-1.2-2.2c0.3-0.2,0.6-0.4,0.7-0.9
					c0.1-0.6,0-1.3-0.3-1.7c4.1-2.4,8.1-5,11.8-8.1c6.7-5.7,6.7-5.8,0.9-12.6c-0.5-0.5-0.8-1-1.3-1.5c-7.6-7.9-14.2-17.8-27.7-13.9
					c-0.2,0-0.3,0-0.5,0c-3.2,0.2-4.9-1.9-3.6-4.3c2.7-5.2-1.3-6.1-4.2-7.6c-4.8-2.5-9.5-6-15.2-0.7c-3,2.8-6.2,0.7-7-3.5
					c-0.1-0.9,0.4-1.9-0.7-2.7c-4.1-2.8-14.4-1.5-17.3,3.1c-2.8,4.5-4.9,2.5-7.2,0.1c-1-1.1-1.8-2.4-2.3-3.8
					c-0.5-1.4-1.3-1.7-2.6-1.6c-5,0.5-10.2,0.6-11.8,6.9c-0.5,2.3-2.3,3.1-4.5,3.1c-2.5,0-4-1.2-4.6-3.7c-0.3-1.1-0.4-2.6-1.9-2.5
					c-4.8,0.3-9.7,0.6-14.4,1.5c-2.9,0.6-2.2,4.1-3.4,6.2c-0.6,1.1-0.8,2.3-2.2,2.5c-1.6,0.2-2.4-1-3.1-2.1
					c-0.7-1.1-1.1-2.4-1.7-3.8c-2.3,0.9-4.6,2-6.6,2.7c-2.6,0.8-3.3,2.4-2.8,4.9c0.3,1.6,1,3.4-0.9,4.5c-1.8,1-3-0.6-4.5-1.1
					c-1.8-0.6-2.9-3.1-5.7-1.5c-7.6,4.4-15.4,8.5-22.2,14.2c-3,2.5-2.7,3.8,0.1,6c1.8,1.4,3.6,2.7,5.4,3.9c-0.1,0.2-0.1,0.3-0.2,0.4
					c0.3,0,0.5-0.1,0.8-0.1c3.1,2,6.2,4,9.1,6.2c0.2,0.1,0.3,0.3,0.5,0.4c0.3,1.9,1.3,3.5,3.2,4.8l-1.5,2.4
					c-4.4-2.8-8.7-5.6-13.2-8.2c-2.1-1.2-4-2.9-5.8-4.7c-6.6-6.6-6.4-11,0.8-17.1c6.8-5.7,14.7-9.6,22.3-14.1
					c14.8-8.8,31.1-11.3,47.9-14c22.2-3.6,43.8-3.4,65.2,3c13.7,4.1,26.1,11.3,37.2,20.6C365.3,196.4,370,201.4,374.7,206.6z
					 M339.5,186.1c1.1,2.6,3.2,1,5,1.1c-1.6-1-2.5-2.9-4.7-2.5C339.6,184.8,339.3,185.6,339.5,186.1z M310.5,173.6
					c1.3,4.8,3.7,2.4,6.6,1C314.6,174.3,313,173.1,310.5,173.6z M283,169.1c3.2,5.3,3.3,5.3,6.5,0.3
					C287.3,169.4,285.2,169.3,283,169.1z M262,176.6c1.5-0.4,2.6-2,3.1-4.2c-2,0.4-3.6,0.7-5.6,1.1C260,175.1,260.8,176.8,262,176.6
					z M234.4,180.6c1.9,0,1.5-2,3-4.2c-2.4,0.9-4.1,0.5-4.7,2.2C232.6,179.1,233.8,180.6,234.4,180.6z M214.2,186.9
					c6.5,3.1,6.3,4.5,5.6-3.2C218.1,185.1,215.8,185.4,214.2,186.9z"/>
				<path class="st11" d="M374.5,276.4c-0.1,0.1-0.2,0.2-0.3,0.3c-1.2,0.6-2,0-2.5-1.3C372.6,275.6,373.6,276,374.5,276.4z"/>
				<path class="st5" d="M373.3,61c1.4,1.7,1.5,2.1,0.2,4.1c-3.9,5.9-7.9,12.2-3,19.8c-1.1,0.5-2.4,0.6-3.1,1.4
					c-2.4,2.5-4.5,1.9-7.1,0.3c-1.1-0.7-2.2-0.9-3.3-0.9c-2.1,0-4.3,1-6.5,1.5c-0.7,0.2-1.4-0.4-2.3-1.2c-1.4-1.4-3.2-3.4-5.7-3.4
					c-1.1,0-2.3,0.7-3.4,1c-1,0.3-2,0.3-2.7-0.8c-1.1-1.7,1.5-3.7,2.1-5.8c2.4-9.6,8.2-17.1,16.1-22.7c4.8-3.3,9.3-6.9,14.1-10.4
					l1.5,2c-1.6,1.4-2.5,3.5-2.3,6.2C368,56.2,371.2,58.3,373.3,61z"/>
				<path class="st2" d="M370.9,258.4c1,4.7,0.5,7.9-1.4,10.9C368.8,266,368.9,262.6,370.9,258.4z"/>
				<path class="st12" d="M368,206.9c5.8,6.8,5.8,6.9-0.9,12.6c-3.7,3.1-7.7,5.8-11.8,8.1c-0.1-0.2-0.4-0.3-0.6-0.4
					c-5.9-1.4-11.8-2.9-18-2.1c-0.8,0.1-1.6,0.8-2,1.4c-2.1,3.5-5.1,6.6-5.1,11.5l0.4,1.2c-3.9,1.4-7.9,2.6-11.9,3.7
					c0.2-0.2,0.4-0.5,0.5-0.9c0.3-1.2-0.6-2.1-1.6-2.8c-2.4-1.8-4.7-3.6-7.2-5.3c-1.2-0.9-2.9-1.8-4.1-0.6c-3.4,3.4-7.9,6-9,12.4
					l0,0.4c-2.6,0.1-5.2,0.1-7.8,0c0-0.1-0.1-0.2-0.2-0.3c-2.3-3.2-3.1-7.3-6.2-10.1c-1.6-1.4-3.4-2.4-5.3-1.1
					c-4.2,2.8-8.5,5.6-10.3,11c0.2,0,0.4,0,0.6,0l0,0.8c-4.1,0.1-8.2-0.3-12.2-1.2l0.2-0.8c0.6,0.1,1.2-0.1,1.9-0.5
					c1.5-1,0.5-2.2,0.3-3.5c-0.7-3.8-3.1-6.9-4.7-10.3c-0.7-1.5-2.4-2.6-4.1-1.7c-3.6,2-7.1,4.2-10.4,6.6c-0.9,0.7-1.6,1.9-1.3,3.1
					c-2.6-1.1-5.2-2.3-7.7-3.5c-0.5-5.2-0.3-9.5,0.2-13.8c0.3-2-0.9-3.6-2.9-2.6c-4.4,2.2-9.5,3.5-12.8,8.2
					c-2.3-1.4-4.6-2.9-6.8-4.4c-0.8-4.2,0.7-8.3,1.1-12.3c0.2-2.1,0.3-4.5-2.8-3.9c-4.5,0.9-9.2,1.5-12.1,6.8
					c-1.8-1.2-3.7-2.5-5.4-3.9c-2.8-2.2-3.1-3.5-0.1-6c6.8-5.7,14.6-9.8,22.2-14.2c2.8-1.6,3.9,0.9,5.7,1.5c1.5,0.5,2.7,2.1,4.5,1.1
					c1.9-1.1,1.2-2.9,0.9-4.5c-0.5-2.5,0.2-4.1,2.8-4.9c2-0.7,4.3-1.8,6.6-2.7c0.6,1.4,1,2.7,1.7,3.8c0.7,1.1,1.5,2.3,3.1,2.1
					c1.4-0.2,1.6-1.4,2.2-2.5c1.2-2.1,0.5-5.6,3.4-6.2c4.7-0.9,9.6-1.2,14.4-1.5c1.5-0.1,1.6,1.4,1.9,2.5c0.6,2.5,2.1,3.7,4.6,3.7
					c2.2,0,4-0.8,4.5-3.1c1.6-6.3,6.8-6.4,11.8-6.9c1.3-0.1,2.1,0.2,2.6,1.6c0.5,1.4,1.3,2.7,2.3,3.8c2.3,2.4,4.4,4.4,7.2-0.1
					c2.9-4.6,13.2-5.9,17.3-3.1c1.1,0.8,0.6,1.8,0.7,2.7c0.8,4.2,4,6.3,7,3.5c5.7-5.3,10.4-1.8,15.2,0.7c2.9,1.5,6.9,2.4,4.2,7.6
					c-1.3,2.4,0.4,4.5,3.6,4.3c0.2,0,0.3,0,0.5,0c13.5-3.9,20.1,6,27.7,13.9C367.2,205.9,367.5,206.4,368,206.9z"/>
				<path class="st2" d="M367.5,277.3c0.4,4,0.9,7.2-1.6,10.7C364.8,284,365.3,280.9,367.5,277.3z"/>
				<path class="st2" d="M365,295c0.3,3.5,0.8,7.1-2.1,10.3C359.9,301,363.1,298.1,365,295z"/>
				<path class="st2" d="M364.2,263.4c0.4,0.3,0.5,1.2,0.4,1.8c-0.5,3.3-0.9,6.6-1.6,9.8c-0.2,1,0.1,2.7-2.2,2.4
					c-2.2-0.3-2.3-1.4-2-3.1c0.7-3.5,0.5-7.3,3.3-10.2C362.7,263.5,363.4,262.9,364.2,263.4z"/>
				<path class="st5" d="M360.2,286c-0.1,2.7,4,4,1.4,7.7c-3.1,4.3-5.7,8.2-12.1,6.4c2.7-2.4,4.1-4.9,4.9-7.8
					C355.2,289.3,359.1,289,360.2,286z"/>
				<path class="st2" d="M361.6,91.2c0.2,2-2.4,2.5-4.3,2.8c-0.1,0-0.2,0-0.4,0c-2.5,0.3-4.9-1.2-5.2-3.4c-0.2-1.6,2.5-2.2,4.5-2.4
					c0.1,0,0.3,0,0.5,0.1C358.8,88.5,361.4,88.8,361.6,91.2z"/>
				<path class="st2" d="M360.7,279c-1.3,4.2-3.9,6.4-5.7,9.2c-0.5,0.8-0.8,1.8-2,0.6c-0.7-0.7-1.9-1.2-0.7-2.2
					C354.8,284.1,356.1,280.4,360.7,279z"/>
				<path class="st0" d="M357.3,93.9l0.4,2.2c-3.1,0.7-6.1,0.2-9-2c-1.6-1.2-2.4-1.4-4.1-0.6c-0.8,0.4-1.7,0.7-2.5,0.8l-0.3-2.9
					c2-0.2,4-1,4.2-2.9c0.1-0.9-0.2-1.5-0.7-1.8l2.8-0.7c0.8,0.8,1.6,1.4,2.3,1.2c2.3-0.5,4.4-1.5,6.5-1.5l-0.3,2.5
					c-0.2,0-0.3-0.1-0.5-0.1c-2,0.2-4.7,0.8-4.5,2.4c0.3,2.2,2.7,3.7,5.2,3.4C357.1,93.9,357.2,93.9,357.3,93.9z"/>
				<path class="st10" d="M354.9,230.2l1.2,2.2c-6,3.4-12.4,6.2-18.9,9c-16.3,7.1-33.3,10.2-50.9,9.5l0.1-1.8c0.7,0,1.3-0.3,1.9-0.9
					c0.6-0.6,1.1-1.4,0.7-2.3c2.6,0.1,5.2,0.1,7.8,0c6.6-0.2,13.1-1.2,19.5-2.7c0,0,0,0,0,0c0.7,0,1.4,0,1.9-0.5
					c4-1,7.9-2.2,11.9-3.7c5.9-2.1,11.6-4.6,17.3-7.4c0.5-0.3,1-0.5,1.5-0.8c1.6-0.2,3.2-0.4,4.9-0.5
					C354.1,230.4,354.5,230.4,354.9,230.2z"/>
				<path d="M355.3,227.6c0.3,0.4,0.4,1.1,0.3,1.7c-0.1,0.5-0.4,0.8-0.7,0.9c-0.4,0.2-0.8,0.2-1.2,0.3c-1.6,0.1-3.3,0.4-4.9,0.5
					C351,229.9,353.1,228.8,355.3,227.6z"/>
				<path class="st2" d="M355.4,334.6c0.2,2.3,0.7,4.7-1.5,7.6C353.2,338.9,353.2,336.6,355.4,334.6z"/>
				<path d="M354.7,227.1c0.3,0.1,0.5,0.2,0.6,0.4c-2.1,1.2-4.3,2.4-6.5,3.4c-2.3,0.2-4.6,0.3-7-0.5c-2.5-0.9-4.2-0.9-5.6,2
					c-1.3,2.5-3.6,4.4-6.6,5.5c0-4.9,3-8,5.1-11.5c0.4-0.6,1.2-1.3,2-1.4C342.9,224.3,348.8,225.8,354.7,227.1z"/>
				<path class="st2" d="M349.7,351c0.4,0.7,0.6,0.9,0.5,1c-0.6,1.8-0.5,4-2.2,5.3c-0.2,0.1-1.2-0.4-1.2-0.6
					C347,354.5,347.9,352.8,349.7,351z"/>
				<path class="st2" d="M351.1,290.6c-0.7,4.7-3.6,6.7-6.2,8.8C345.7,296.1,347.5,293.5,351.1,290.6z"/>
				<path class="st13" d="M348.8,231c-0.5,0.3-1,0.5-1.5,0.8c-5.7,2.8-11.4,5.3-17.3,7.4l-0.4-1.2c3-1.1,5.3-3,6.6-5.5
					c1.4-2.9,3.1-2.9,5.6-2C344.1,231.3,346.5,231.2,348.8,231z"/>
				<path class="st0" d="M348.2,86l-2.8,0.7c-0.9-0.7-2.6-0.6-3.7-0.8c-0.7,0.2-1.4,0.2-2.2,0.3l-0.4-2.6c1.1-0.3,2.3-1,3.4-1
					C345,82.6,346.8,84.6,348.2,86z"/>
				<path class="st2" d="M345.4,86.7c0.5,0.3,0.8,0.9,0.7,1.8c-0.2,2-2.1,2.8-4.2,2.9c-0.3,0-0.6,0.1-0.9,0.1
					c-1.4,0.1-2.9-0.2-3.9-1c-0.5-0.4-0.8-0.9-0.8-1.7c0-2,1.5-2.5,3.2-2.7c0.8-0.1,1.6-0.2,2.2-0.3
					C342.9,86.2,344.5,86.1,345.4,86.7z"/>
				<path class="st13" d="M344.5,187.1c-1.8-0.1-3.9,1.5-5-1.1c-0.2-0.4,0.1-1.3,0.3-1.4C342,184.3,342.9,186.1,344.5,187.1z"/>
				<path class="st2" d="M342.9,308.1c1.9,1.6-0.3,3.9-1.3,5.7c-0.7,1.3-1.5,2.3-2.6,3.3c-1.3,1.2-2.9,2.3-4.5,3.8
					c-0.1-0.5-0.1-0.9-0.1-1.3c-0.2-3.9,1.2-6.6,3.5-8.9C339.3,309.4,340.9,306.4,342.9,308.1z"/>
				<path class="st0" d="M341.9,91.5l0.3,2.9c-3.1,0.5-5.9-0.7-7.7-3.4l2.6-0.3c0.9,0.7,2.5,1,3.9,1
					C341.3,91.6,341.6,91.5,341.9,91.5z"/>
				<path class="st2" d="M342.9,362.8c-0.1,4.9-1.4,9.3-5.9,13.5C335.6,369.4,340.4,366.6,342.9,362.8z"/>
				<path class="st0" d="M339,317.1l2.6,1.5c-1.8,1.6-3.5,3.3-5,5c-1.6,1.8-2.9,3.9-3.8,6.3c-1.3,3.4-4.2,6-6.3,8.8
					c-0.5,0.7-1.1,1.4-1.6,2l-2.7-1c0.8-0.8,1.2-2,1.6-3.6c-1.8,0.5-2.9,0.8-3.6,1.3l-1.9-1.4c1.3-1.4,2.6-2.8,3.9-4.1
					c0-0.1-0.1-0.3-0.1-0.5c-0.5-5.8,2.9-8.8,7.8-10.7c0.6-0.3,1.9,0.1,1.9-1.1l2.5-0.1c0,0.4,0.1,0.9,0.1,1.3
					C336.1,319.4,337.7,318.3,339,317.1z M330.6,327c0.5-0.7,1.3-1.3,0.3-2.1c-0.9-0.7-1.5-0.2-2.2,0.3c-2.8,1.9-3.6,4.7-3.2,9.2
					C327.7,331.3,329.2,329,330.6,327z"/>
				<path class="st2" d="M335,69.2c-1.1,3.4-3.3,4.7-6.8,6.7C330.1,72.3,331.4,70.2,335,69.2z"/>
				<path class="st2" d="M332.6,83.7c0.3,0.8-0.3,1.5-0.7,1.5c-1.8-0.4-3-0.6-4-1c-2-0.8-4.9-0.8-5.1-3.9c-0.1-0.8,0.9-1.1,1.5-0.9
					C327.3,80.3,331,80.2,332.6,83.7z"/>
				<path class="st2" d="M330.9,324.9c1,0.8,0.2,1.4-0.3,2.1c-1.4,2.1-2.9,4.3-5.1,7.4c-0.4-4.5,0.4-7.3,3.2-9.2
					C329.4,324.6,330,324.1,330.9,324.9z"/>
				<path class="st2" d="M333.5,380.5c-2.9,3.5-3.2,8-7.1,10.1C325.1,385.5,328.1,381,333.5,380.5z"/>
				<path class="st0" d="M322.2,339.7l2.7,1c-4.4,4.9-10.2,8.1-16.3,11l-1.1-2.3c1.7-0.9,3-2.3,4.2-3.8c-3,0.2-5.7,0.7-7.7,3.1
					l-1.8-1.4c0.4,0,0.8-0.3,1.1-0.8c1.9-2.9,5.7-2.5,8.1-4.1c2.6-1.8,4.8-4,6.9-6.3l1.9,1.4c-1.1,0.7-1.7,1.9-3,4.7
					C319.7,341.5,321.2,340.8,322.2,339.7z"/>
				<path class="st2" d="M323.8,336.1c-0.4,1.6-0.9,2.7-1.6,3.6c-1,1.1-2.5,1.7-5,2.4c1.3-2.9,1.8-4,3-4.7
					C320.9,336.9,322,336.6,323.8,336.1z"/>
				<path class="st2" d="M320.5,448.9c1.8,2.6,2.5,5.7,1.3,9c-0.5,1.3-1.2,2.4-2.3,1.1c-2.1-2.4-7-2.7-6.1-7.6
					c0.2-0.8-0.6-1.8-1.3-3.4C315.2,449.5,318.2,445.4,320.5,448.9z"/>
				<path d="M317.1,239.1c1,0.7,1.9,1.6,1.6,2.8c-0.1,0.4-0.3,0.7-0.5,0.9c-0.6,0.2-1.3,0.3-1.9,0.5c0,0,0,0,0,0
					c-0.3,0-0.7-0.1-1-0.1c-1-0.1-2.2-0.1-2.8-0.7c-4.5-4.4-8.2-2.4-12,1c-0.8,0.7-2,1.1-3.7,2.1c1.1-6.4,5.6-9,9-12.4
					c1.2-1.2,2.9-0.3,4.1,0.6C312.4,235.4,314.7,237.3,317.1,239.1z"/>
				<path d="M316.3,243.2c0.6-0.1,1.3-0.3,1.9-0.5C317.6,243.2,317,243.3,316.3,243.2z"/>
				<path class="st2" d="M318.2,396.5c-0.2,2.8-1,5.4-4,7.2C313.8,400,316.2,398.4,318.2,396.5z"/>
				<path class="st2" d="M313.7,457.1c-0.1,5.2,10,5.3,3.2,11.8C312.5,460.5,312.5,460.5,313.7,457.1z"/>
				<path class="st13" d="M315.3,243.1c0.3,0,0.6,0.1,1,0.1c-6.4,1.5-12.8,2.4-19.5,2.7l0-0.4c1.7-1,2.9-1.4,3.7-2.1
					c3.8-3.4,7.5-5.4,12-1C313.1,243.1,314.3,243.1,315.3,243.1z"/>
				<path class="st13" d="M317.1,174.6c-2.9,1.4-5.3,3.8-6.6-1C313,173.1,314.6,174.3,317.1,174.6z"/>
				<path class="st2" d="M310.9,465c-1.3,3.7,5.8,6.5,1.1,11.3c-0.7-2.4-0.4-4.9-2.1-6.2c-0.9-0.7-1.4-1.3-1.6-1.8
					C307.8,467,309.2,466,310.9,465z"/>
				<path class="st0" d="M312,476.4l-2.6,0.7c-0.6-2.7-2-5.4-2.6-8.4l1.5-0.3c0.2,0.5,0.7,1.1,1.6,1.8
					C311.6,471.5,311.3,474,312,476.4z"/>
				<path class="st2" d="M315.5,443.3c-5.3,3.7-5.3,3.7-13.2-1.5C307.7,436.6,307.7,436.6,315.5,443.3z"/>
				<path class="st14" d="M309.6,450.9c1.2,0.8,1.1,2.4,0.8,3.7c-0.6,2.4-0.9,5.3-2.5,6.9c-5,5-8.4,10.9-11,17.3
					c-1.3,3.3-3.6,3-6,2.4c-6.9-1.8-14-2.9-20.5-6c-5.3-2.5-7.7-7.3-8.5-12.7c-0.8-5.4,0.4-10.5,5.1-13.7c6.5-4.4,13.2-8,20.9-7.2
					C297.4,440.1,303,446.6,309.6,450.9z"/>
				<path class="st2" d="M309.4,477c0.7,3,0.5,6-2.7,9.1c-0.6-4.5-0.2-8.6-2.8-12.2c-1.5-1.9,1-3.2,2.9-5.3
					C307.4,471.6,308.7,474.3,309.4,477z"/>
				<path class="st2" d="M308.3,406.8c0.3,0.9,0.5,1.3,0.4,1.5c-0.4,2.5-1.1,4.9-3.4,6.4c-1,0.6-1.6-0.8-1.6-1.3
					C303.7,410.1,306.1,408.6,308.3,406.8z"/>
				<path class="st2" d="M311.7,345.5c-1.2,1.5-2.5,2.9-4.2,3.8c-1.3,0.7-2.9,1.2-4.8,1.3c0.4-0.8,0.8-1.4,1.3-2
					C306,346.2,308.7,345.7,311.7,345.5z"/>
				<path class="st0" d="M307.5,349.4l1.1,2.3c-1.5,0.7-3,1.4-4.6,2.1c-0.6,0.2-1.6-0.4-2.4-0.4c-3.6,0-6.2,3.6-4.9,6.8
					c0,0.1,0.1,0.1,0.1,0.2c-0.1-0.1-0.1-0.1-0.2-0.2c0.3,4.1-1.2,6.7-5.9,6.5c-3.8-0.1-2.9-3.2-3.5-5.4c0.1-0.1,0.1-0.1,0.2-0.2
					c1.9-3.4,0.4-4.2-2.7-3.5c-2.6,0.5-5.3,0.5-7.2,2.8c-3.6-0.1-7.8,1.5-10.3-1.7c-1.8-2.3-3.5-2.2-5.8-2.2
					c-6.3,0-9.3-1.6-10.8-5.8c0.2-0.1,0.4-0.2,0.7-0.3c3.8,2,7.8,3.4,13.4,2.6c-2.9-1.9-4.7-3.4-6.8-4.2c-0.6-0.3-1.3-0.5-2-0.8
					l0.5-2.4c4.6,1,8.6,3.4,11.1,7.7c2.9,4.8,6.3,5.2,11.4,1.5c-3.3-2.2-7.2,0.2-10.5-1.5c0,0,0,0-0.1,0c3.6-4.3,8.2-3.4,12.2-1.4
					c2.3,1.2,2.9,0.3,4.4-0.8c5-3.5,10-8,16.9-4.1c0.2,0.1,0.4,0.2,0.5,0.2l1.8,1.4c-0.5,0.6-0.9,1.2-1.3,2
					C304.6,350.6,306.2,350.1,307.5,349.4z M292.2,363.5c0.9,0,1.6-0.5,1.3-1.5c-0.4-1-0.8-2.1-2.1-2.3c-1.1,0.5-1.4,1.5-1.4,2.4
					C290.1,363.4,291.2,363.5,292.2,363.5z M298.4,348.3c-4.5,1.4-8.8,2-12.2,5.7C293.7,354.4,296.4,353.1,298.4,348.3z"/>
				<path class="st15" d="M306.6,375.1c5.1,2.6,5.4,8,1,11.7c-1.8,1.6-3,2.2-1.7,5.3c2.2,4.9-4.4,11-9.9,9.3
					c-1.9-0.6-3.1-0.6-4.9,0.3c-4.7,2.1-8.3,0.2-9.6-5c-0.4-1.7-1.1-1.8-2.6-2.1c-5.5-1.3-7.3-4.9-5.5-10.4c0.1-0.3,0.6-0.7,0.5-0.8
					c-3.5-5.1-1.1-9.8,0.4-14.9c0.8-2.6,0.8-5.2,2.8-7.2c0.3-0.1,0.5-0.2,0.8-0.3c0,0.2,0,0.4,0,0.6c-2.5,4.3-1.5,9.8-4.6,14
					c-0.8,1.1,0.2,2.6,0.9,3.7c1.1,1.9,1.2,3.7,0.5,5.7c-1.3,3.8,0.2,6.6,3.9,7.8c2.3,0.7,3.8,1.7,4.4,4.2c0.9,3.7,3.7,4.6,7,3.6
					c2.5-0.7,4.8-0.7,7.3-0.4c4.5,0.5,8.5-3.4,7.6-7.6c-0.7-3.1,0.3-5,2.2-7.1c3.2-3.6,3.1-6.2-0.5-9.3c-1.8-1.5-2.3-2.9-2-5.1
					c0.3-3.4-0.5-6.5-4.9-6.4c-1.7,0-2.2-0.6-2.4-1.4c0.1-0.7,0.2-1.4,0.2-2.1c0.2,0.9-0.2,2,0.3,3c1.9-0.9,4-2.5,5.8-0.5
					c2.1,2.3,3.3,5,2.2,8.2C305.3,373.4,304.5,374.1,306.6,375.1z"/>
				<path class="st15" d="M306.5,376.4c3.6,3.1,3.7,5.7,0.5,9.3c-1.9,2.1-2.9,4-2.2,7.1c0.9,4.2-3.1,8.1-7.6,7.6
					c-2.5-0.3-4.8-0.3-7.3,0.4c-3.3,1-6.1,0.1-7-3.6c-0.6-2.5-2.1-3.5-4.4-4.2c-3.7-1.2-5.2-4-3.9-7.8c0.7-2,0.6-3.8-0.5-5.7
					c-0.7-1.1-1.7-2.6-0.9-3.7c3.1-4.2,2.1-9.7,4.6-14c0-0.2,0.1-0.4,0-0.6c0.5-0.2,1.1-0.4,1.6-0.6c1.8-0.2,3.4,0.6,4.7,2
					c1.1,1.2,1.7,1.2,2.1,0.9c1.4,5.1,4.1,6.3,8.3,3.9c1.5-0.9,2.3-2.3,2.6-3.8c0.2,0.8,0.7,1.4,2.4,1.4c4.4-0.1,5.2,3,4.9,6.4
					C304.2,373.5,304.7,374.9,306.5,376.4z M307.5,381.1c0.1-1.9-0.4-3.9-2.8-3.8c-2.9,0.1-5,2-5.4,4.8c-0.3,1.8,0.6,3.9,3.2,4.4
					C304.8,385.5,307.4,384.5,307.5,381.1z M302.8,393.8c0.1-2.5-1.9-3.6-3.9-3.4c-2.3,0.1-3.5,2-3.3,4.4c0.2,1.6,0.4,3.3,2.6,3.4
					C300.6,397.5,302.7,396.5,302.8,393.8z M299.8,372.1c1.4-0.2,2.2-1.3,2-2.9c-0.3-0.8,0-2.3-1.5-2s-3.1,1.2-3.2,2.6
					C297,370.8,298.3,372.4,299.8,372.1z M293.1,385.5c2.2-4.4,0.4-10.8-4.1-14.1c-2.2,4.7-3.2,9.3-0.5,14.1
					c0.5,0.9,0.9,2.4,2.2,2.2C291.6,387.5,292.6,386.5,293.1,385.5z M288.3,399.1c1.9-0.3,3.7-0.9,3.5-3.4c-0.3-3.2-3.4-2.5-5.1-3.4
					c-2.3,0-2.5,1.4-2.5,3C284.3,398,285.6,399.5,288.3,399.1z M280.9,368.8c1-0.4,3.1-0.1,2.9-2c-0.1-1.6-1.6-3.1-3.2-3.4
					c-2-0.4-2.6,1.3-2.7,2.8C277.7,367.9,278.7,368.9,280.9,368.8z M281.8,388.6c0.4-2.8-1.7-3.8-2.9-5.3c-2.3,0-2.5,1.6-2.8,3.1
					c-0.4,2.5,0.9,4.1,3.3,4.5C280.9,391.3,281.6,390.3,281.8,388.6z M280.4,376c1.3-2.5-0.6-3.3-2.8-3.5c-2-0.1-3,1.4-2.9,3.2
					c0.1,2.1,0.9,3.7,3.5,3.8C280.8,379.6,280.7,378.1,280.4,376z"/>
				<path class="st2" d="M304.7,377.4c2.4-0.1,2.9,1.9,2.8,3.8c-0.1,3.3-2.7,4.3-5,5.4c-2.6-0.5-3.5-2.6-3.2-4.4
					C299.7,379.4,301.8,377.5,304.7,377.4z"/>
				<path class="st2" d="M302,433c0.7,1,3.3,2.5,1.8,3c-2.5,0.8-2.4,5.1-6,3.8c-1.8-0.6-3.7-1.1-4.9-1.5c1.3-1.6,3-3.3,4.5-5.3
					C299,430.6,300.6,431,302,433z"/>
				<path class="st2" d="M298.9,390.4c2-0.2,4,0.9,3.9,3.4c-0.1,2.7-2.2,3.8-4.6,4.4c-2.2-0.1-2.4-1.8-2.6-3.4
					C295.4,392.4,296.6,390.5,298.9,390.4z"/>
				<path class="st2" d="M302.1,488.3c0.5,1-0.6,1.4-1.4,1.5c-1.3,0.2-1.2-0.7-1.2-1.6c0-2.6,0-5.2,0-7.8c0.4,0,0.9,0,1.4,0
					C302.4,482.8,301,485.8,302.1,488.3z"/>
				<path class="st2" d="M301.8,369.3c0.2,1.6-0.6,2.7-2,2.9c-1.5,0.2-2.8-1.4-2.7-2.3c0.1-1.4,1.7-2.3,3.2-2.6
					S301.5,368.5,301.8,369.3z"/>
				<path class="st2" d="M297.7,483.6c-0.8,2.8,1.1,5.2-1.6,6.6c-0.3,0.2-1.3,0-1.3-0.1C294.6,487.9,295.3,486,297.7,483.6z"/>
				<path class="st2" d="M290.8,419.8c5.7-4.4,6.7-4.5,10.9-0.9C298.4,421.8,294.9,421.4,290.8,419.8z"/>
				<path class="st15" d="M297.4,361.4c0,0.7-0.1,1.4-0.2,2.1c-0.2-1,0.1-2.3-0.4-3.1C297.1,360.6,297.3,361,297.4,361.4z"/>
				<path class="st15" d="M297.2,363.5c-0.3,1.5-1.1,2.9-2.6,3.8c-4.2,2.4-6.9,1.1-8.3-3.9c0.4-0.5,0.6-1.6,0.9-2.1
					c0.5,2.2-0.3,5.3,3.5,5.4c4.7,0.2,6.2-2.4,5.9-6.5c0.1,0.1,0.1,0.1,0.2,0.2C297.2,361.2,296.9,362.5,297.2,363.5z"/>
				<path class="st2" d="M293.5,362c0.3,1-0.4,1.5-1.3,1.5c-1,0-2.1-0.1-2.2-1.4c0-0.9,0.3-1.9,1.4-2.4
					C292.7,359.9,293.1,361,293.5,362z"/>
				<path class="st16" d="M289,371.5c4.5,3.3,6.3,9.7,4.1,14.1c-0.5,0.9-1.5,2-2.4,2.2c-1.3,0.2-1.7-1.3-2.2-2.2
					C285.8,380.8,286.8,376.1,289,371.5z"/>
				<path class="st2" d="M296.3,429c-3,2.6-5.1,4.8-6.6,8c-1.7,3.6-5.7,0.6-8.7,2.1C284.7,429.6,289.8,426.1,296.3,429z"/>
				<path class="st2" d="M286.2,354c3.4-3.7,7.7-4.3,12.2-5.7C296.4,353.1,293.7,354.4,286.2,354z"/>
				<path class="st2" d="M291.8,395.8c0.2,2.5-1.6,3.1-3.5,3.4c-2.7,0.4-4-1.2-4.1-3.8c0-1.6,0.2-3,2.5-3
					C288.4,393.3,291.5,392.5,291.8,395.8z"/>
				<path d="M289,245.9c0.4,0.9-0.1,1.6-0.7,2.3c-0.6,0.6-1.2,0.9-1.9,0.9c-0.4,0-0.8-0.1-1.3-0.3c-1.8-0.7-3-1.9-3.8-3.4
					c0.7,0,1.4,0.1,2.1,0.1C285.2,245.7,287.1,245.8,289,245.9z"/>
				<path d="M288.8,245.6c0.1,0.1,0.1,0.2,0.2,0.3c-1.9-0.1-3.7-0.2-5.6-0.4c-0.7-0.1-1.4-0.1-2.1-0.1c-0.3-0.5-0.5-1.1-0.6-1.7
					c-1.4-5.1-3.5-4.2-6.4-1.3c-1.8,1.8-3.9,3-6.7,3c-0.2,0-0.4,0-0.6,0c1.8-5.4,6.1-8.2,10.3-11c1.9-1.3,3.7-0.3,5.3,1.1
					C285.7,238.3,286.5,242.4,288.8,245.6z"/>
				<path class="st1" d="M269,307c6.2,0,12.5,0,19.4,0c-10.2,4.3-19,10.3-29.7,13.3c2.2-4.8,7-7.3,8.2-12.3
					C267.1,307.1,268.1,307,269,307z"/>
				<path class="st2" d="M282.2,489.5c1.6-3.4,2.5-8.4,8.8-4.4C290.4,490.6,287.1,491.6,282.2,489.5z"/>
				<path class="st13" d="M289.5,169.4c-3.2,5-3.3,5-6.5-0.3C285.2,169.3,287.3,169.4,289.5,169.4z"/>
				<path class="st10" d="M286.4,249l-0.1,1.8c-1.4,0-2.7-0.1-4.1-0.2c-3.7,0-7.4-0.3-11,0.1c-16,1.7-29.3-5.6-43.2-11.8
					c-7.9-3.5-15.3-8-22.5-12.6l1.5-2.4c0.4,0.2,0.8,0.5,1.3,0.7c-0.5-1-0.8-1.9-0.9-2.9c2.2,1.6,4.5,3,6.8,4.4
					c-0.2,0.3-0.4,0.6-0.5,0.8c0.9,0.3,1.7,0.4,2.5,0.3c3.6,2.1,7.3,4.1,11,5.9c0.6,1.1,1.4,2.2,2.6,3.2c-0.1-0.7-0.1-1.4-0.2-2.1
					c2.5,1.2,5.1,2.4,7.7,3.5c0.1,0.3,0.2,0.6,0.4,0.9c0.7,0.9,1.5,0.7,2.3,0.3c2.8,1.2,5.6,2.4,8.5,3.6c2.3,1,4.6,1.7,7,2.3
					c4,0.9,8,1.3,12.2,1.2c1.4,0,2.9-0.1,4.4-0.2c3.1-0.3,6.2-0.7,9.3-0.6c0.8,1.5,2,2.8,3.8,3.4C285.5,248.9,286,249,286.4,249z"/>
				<path class="st2" d="M282.1,413.1c2,1.1,3.3,2.7,3.2,5.1c-0.1,1.2-1.1,1.7-2.1,1.7c-2.5,0.1-4.5-0.8-5.6-3.2
					c-0.8-1.7-1.6-3.5-2.5-5.6C278,411,280.1,412.1,282.1,413.1z"/>
				<path class="st2" d="M283.8,366.8c0.2,1.9-1.9,1.6-2.9,2c-2.2,0.1-3.2-0.9-3-2.6c0.1-1.5,0.7-3.2,2.7-2.8
					C282.2,363.6,283.7,365.1,283.8,366.8z"/>
				<path class="st2" d="M278.9,383.4c1.2,1.5,3.3,2.5,2.9,5.3c-0.2,1.6-0.9,2.6-2.4,2.3c-2.4-0.4-3.7-2-3.3-4.5
					C276.4,385,276.6,383.4,278.9,383.4z"/>
				<path class="st13" d="M281.3,245.3c-3.1-0.1-6.2,0.4-9.3,0.6c-1.5,0.1-2.9,0.2-4.4,0.2l0-0.8c2.8,0,4.9-1.3,6.7-3
					c2.9-2.9,5-3.8,6.4,1.3C280.8,244.2,281,244.8,281.3,245.3z"/>
				<path class="st2" d="M286.6,427.5c-4.6,3.3-8.7,6.4-10.2,12c-0.5,1.8-3.4,2.2-5.5,3C271.5,430.9,274,428.4,286.6,427.5z"/>
				<path class="st2" d="M277.6,372.5c2.2,0.2,4.1,1,2.8,3.5c0.3,2.1,0.4,3.6-2.2,3.5c-2.6-0.1-3.4-1.7-3.5-3.8
					C274.6,374,275.6,372.5,277.6,372.5z"/>
				<path class="st2" d="M270.9,487.6c3.3-1.5,4-8.4,10-4.7C278.4,486.4,275.5,489,270.9,487.6z"/>
				<path class="st15" d="M279.4,360.5c-0.5,0.2-1.1,0.4-1.6,0.6c0,0,0-0.1,0-0.1C278.3,360.7,278.9,360.6,279.4,360.5z"/>
				<path class="st15" d="M277.8,361c0,0,0,0.1,0,0.1c-0.3,0.1-0.5,0.2-0.8,0.3c0.1-0.1,0.2-0.1,0.2-0.2c0.1-0.1,0.1-0.1,0.2-0.2
					c0,0.1,0,0.1,0,0.2C277.6,361.1,277.7,361,277.8,361z"/>
				<path class="st13" d="M277.8,361c-0.1,0-0.2,0.1-0.3,0.1c0-0.1,0-0.1,0-0.2c0.1-0.1,0.2-0.2,0.3-0.3
					C277.7,360.8,277.8,360.9,277.8,361z"/>
				<path class="st2" d="M268.3,353.4c3.3,1.7,7.2-0.7,10.5,1.5c-5.1,3.7-8.5,3.3-11.4-1.5c0.3,0.4,0.6,0.4,0.8,0
					C268.2,353.3,268.2,353.3,268.3,353.4C268.2,353.3,268.3,353.3,268.3,353.4z"/>
				<path class="st2" d="M269.8,406.8c0.9,0.8,1.5,2.1,0.9,3.1c-0.9,1.4-2.3,0.6-3.5,0.2c-3.5-1.3-3.8-4.6-5-8
					C265.8,402.8,267.7,404.9,269.8,406.8z"/>
				<path class="st2" d="M266.4,478.6c2-1.6,4,0.6,6.4,1c-5.3,6.6-11.4,6.6-18.7,0.3C258.5,480.6,262.6,481.6,266.4,478.6z"/>
				<path class="st17" d="M268.2,353.3C268.2,353.3,268.2,353.3,268.2,353.3c-0.2,0.4-0.5,0.4-0.8,0
					C267.7,353.3,267.9,353.2,268.2,353.3z"/>
				<path class="st2" d="M269.6,433.9c-3.8,4.7,0.9,11.6-7.5,14.1C264,443,260.7,436.5,269.6,433.9z"/>
				<path class="st13" d="M265.1,172.4c-0.5,2.2-1.6,3.8-3.1,4.2c-1.2,0.2-2-1.4-2.5-3.1C261.5,173.1,263.1,172.8,265.1,172.4z"/>
				<path class="st2" d="M251.2,350.4c-0.3-0.2-0.6-0.3-0.9-0.5l0,0c1.5-2.5,3.5-2.4,5.5-1.8c0.7,0.2,1.4,0.5,2,0.8
					c2.1,0.8,3.9,2.3,6.8,4.2C259,353.8,255,352.4,251.2,350.4z"/>
				<path class="st2" d="M265,475.5c-5.8,2.2-10.5,0.3-14.8-1.1c-3.5-1.1-2.6-5.5-2.9-9.5c3.8,2.8,7.4,4.4,12,4.2
					C261.8,469,262.1,473.5,265,475.5z"/>
				<path class="st2" d="M258.8,440c-1.5,6.2,2.2,11.6-0.4,17.7c-0.2-0.2-0.4-0.3-0.6-0.5c-2-1.6-3.4-3.5-4.1-5.3
					C252.2,447.8,253.9,443.5,258.8,440z"/>
				<path class="st2" d="M258.1,459.8c0.3,0,0.6,3.6,0.9,5.6c-9.5-2.9-11.8-6.7-9-15.1c0.4,0.7,0.7,1.5,1,2.2c1.2,3.3,1.9,7,6.6,7.2
					C257.8,459.7,257.9,459.8,258.1,459.8z"/>
				<path class="st2" d="M258,402.8c0.7,2.2,0.7,4.4-1.4,5.7c-2.4,1.5-3.5-0.7-4.9-2c-3.5-3.4-4.4-7.4-1.9-12.1
					C253.6,396.5,256.7,398.8,258,402.8z"/>
				<path d="M257.8,240.3c0.2,1.3,1.2,2.5-0.3,3.5c-0.6,0.4-1.3,0.5-1.9,0.5c-0.8-0.1-1.6-0.6-2.3-1.2c-1.9-1.7-2.7-4.1-3.8-6.3
					c-0.4-0.8-0.5-1.9-1.6-1.8c-2.4,1.3-4.6,2.4-6.8,3.6c-0.4,0.2-0.8,0.4-1.2,0.6c-0.9-0.4-1.8-0.8-2.8-1.2
					c-0.3-1.1,0.4-2.4,1.3-3.1c3.3-2.4,6.8-4.6,10.4-6.6c1.7-0.9,3.4,0.2,4.1,1.7C254.7,233.4,257.1,236.4,257.8,240.3z"/>
				<path class="st0" d="M257.7,457.2l-0.1,2.6c-4.8-0.3-5.4-3.9-6.6-7.2l2.7-0.7C254.4,453.7,255.7,455.5,257.7,457.2z"/>
				<path class="st0" d="M256.3,345.6l-0.5,2.4c-2-0.6-4-0.7-5.5,1.8l0,0l0,0c-5,2.1-11,1.2-13.3-2.7c-1.9-3.4-4.6-6.6-5.8-9.8
					c-1.8-5-3.3-9.2-7.8-12.6c-2.3-1.7-0.1-5.5-0.1-7.7l1.3-0.1c0.2,3.1,0.4,5.9,3.5,7.3c1.3,0.7,2.9,1.4,4-0.2
					c0.4-0.6,0.6-1.1,0.6-1.7l2.9,0c0,1.6-0.1,3.2,0.5,4.3c1.5,3,6.6,4.8,6,8.9c-0.5,3.7,1.6,3.2,3.4,3.6c2.6,0.7,6.1,0.2,6.9,3.7
					c0.5,2,1.2,2.3,3.1,2.6C255.7,345.5,256,345.5,256.3,345.6z M248.6,345.1c0.4-1.6-0.7-1.9-1.9-2.1c-2.7-0.5-5.3-1-8.4-0.5
					c1.5,4,4.7,4.5,7.9,4.6C247.6,347.3,248.3,346.5,248.6,345.1z M236.3,337.9c1.5,0.1,2.7-0.8,2.5-2.4c-0.4-2.8-2.3-4.3-4.8-5.1
					c-1.1,0.4-2.7,0.3-2.2,2.2C232.6,334.9,233.2,337.5,236.3,337.9z"/>
				<path class="st13" d="M255.6,244.2l-0.2,0.8c-2.3-0.5-4.7-1.3-7-2.3c-2.8-1.2-5.6-2.4-8.5-3.6c0.4-0.2,0.8-0.4,1.2-0.6
					c2.2-1.2,4.4-2.3,6.8-3.6c1.1-0.1,1.2,1,1.6,1.8c1.1,2.2,1.9,4.6,3.8,6.3C254.1,243.6,254.8,244.1,255.6,244.2z"/>
				<path class="st0" d="M250.3,349.9c0.3,0.2,0.6,0.3,0.9,0.5c-0.2,0-0.4,0.1-0.7,0.3C250.4,350.4,250.4,350.1,250.3,349.9z"/>
				<path class="st2" d="M246.7,343c1.2,0.2,2.3,0.5,1.9,2.1c-0.3,1.3-1,2.1-2.4,2c-3.2-0.1-6.4-0.6-7.9-4.6
					C241.4,342,244,342.5,246.7,343z"/>
				<path class="st2" d="M242.8,387.5c1,2,2,4.2,0,5.9c-2.1,1.8-4.4,1-6.4-0.5c-2.2-1.7-2.7-4.3-5.1-5.5l-0.1-0.2
					C234.4,385.4,240.8,383.5,242.8,387.5z"/>
				<path d="M237.3,237.9c0.9,0.4,1.8,0.8,2.8,1.2c-0.8,0.4-1.7,0.6-2.3-0.3C237.5,238.6,237.3,238.3,237.3,237.9z"/>
				<path class="st2" d="M238.8,335.5c0.2,1.6-1,2.5-2.5,2.4c-3.1-0.3-3.7-3-4.5-5.3c-0.5-1.9,1.1-1.8,2.2-2.2
					C236.5,331.1,238.4,332.6,238.8,335.5z"/>
				<path class="st13" d="M237.4,176.4c-1.5,2.2-1.1,4.2-3,4.2c-0.6,0-1.8-1.5-1.7-2C233.3,176.9,235,177.3,237.4,176.4z"/>
				<path class="st0" d="M233.4,317c1.9,1.4,2.2,3.4,2.2,5.4l-2.9,0c0-1-0.6-2-1.6-2.6c-1.9-1.3-4.1-2.1-6.5-3.3c0,0.2,0,0.3,0,0.5
					l-1.3,0.1c0-0.3-0.1-0.6-0.2-0.9c-1.4-2.8-4.3-4.8-3.3-8.6c0.1-0.2,0.2-0.4,0.3-0.6l1.5,0.2c-0.1,0.3-0.1,0.7,0.1,1.1
					c0.6,1.9,0.7,4.4,3.8,4.2c1.2-0.1,1.9-0.5,2.3-0.9l2.8,0.1C229.5,314.7,231.3,315.5,233.4,317z"/>
				<path class="st0" d="M230.8,387.4c-5.6,2.5-10.4,0.4-11.7-5.2c-0.6-2.6-1.5-3.7-4.1-4.5c-4.8-1.4-7.2-8-5.5-14.5
					c0.6-2.2,1.1-3.2-1.6-4.4c-5.2-2.2-3.3-6.5-2-10.3c0.8-2.4,1.7-3.9-1.4-5.9c-3.5-2.2-2.6-7.4,1.6-13.2c-4-1.5-6-4.4-5.6-8.6
					c0.3-3.9,2-7.3,5-10.3l2.6-0.9c0.4,0.9,1,1.7,2,2.5c3.3,2.6,5.6,6.3,3.4,10.5c-2,3.8-1.9,7.1,0.2,10.6c0.5,0.8,0.8,2,0.7,2.9
					c-0.7,6.9,4.7,12.5,3.8,19.5c-0.4,2.7,1.6,4.6,3.2,6.5l0,0c0.5,1.1,1.1,2.3,1.7,3.3c1.7,2.7,3.9,5.1,6.7,7.2
					c4.3,3,5.7,7.2,4.1,10.9c-1.5,0.9-2.7,2.2-2.9,3.8c0,0,0,0,0,0C231,387.3,230.9,387.3,230.8,387.4
					C230.9,387.4,230.8,387.4,230.8,387.4z M226.6,383.5c2.2,0,1.9-1.8,2.5-3.3c-0.7-3.2-4-4.1-6.1-5.8c-0.7-0.6-2.3,1.5-2.7,2.8
					C219.8,378.6,225.1,383.5,226.6,383.5z M219.4,369.5c0.3-3.6-1.9-6.3-3.6-9.1c-0.5-0.8-0.8-1.9-2.1-1.5
					c-1.3,0.5-1.6,1.6-1.5,2.9c0.6,2.9,1,5.8,1.9,8.7c0.4,1.4,1.3,3.1,3,2.9C219.2,373.1,219.2,371,219.4,369.5z M213.6,353.5
					c1.4-3.8,0.7-7.1-3-10.5c-0.8,3.6-1.3,6.5-1.9,9.3c-0.3,1.6,0.4,2.6,1.9,3S213.1,355,213.6,353.5z M208.8,339.9
					c1.9,0.1,2.1-1.4,1.9-2.7c-0.3-2.5-1-4.9-1.5-7.4c-0.3,0-0.7,0-1,0c-0.4,2.6-0.8,5.1-1.1,7.6C207,338.5,207.4,339.8,208.8,339.9
					z M208.8,323.9c1.3-1.7,2.4-3.7,1.1-5.9c-1-1.8-2.4-3.5-4-5.8c-0.5,3-0.9,5.1-1.2,7.2c-0.3,1.9,0,3.7,1.5,5
					C207,325,208.1,324.8,208.8,323.9z"/>
				<path class="st2" d="M232.6,322.4c0,0.6-0.2,1.1-0.6,1.7c-1.1,1.6-2.7,0.9-4,0.2c-3.1-1.4-3.3-4.2-3.5-7.3c0-0.2,0-0.3,0-0.5
					c2.4,1.2,4.6,2,6.5,3.3C232,320.4,232.6,321.3,232.6,322.4z"/>
				<path class="st0" d="M233.9,383.5c-0.6,1.4-1.5,2.6-2.9,3.8C231.2,385.6,232.4,384.4,233.9,383.5z"/>
				<path d="M226.9,217.9c2-1,3.2,0.6,2.9,2.6c-0.5,4.3-0.7,8.7-0.2,13.8c-0.8-0.4-1.6-0.8-2.4-1.2c-1.5-3.1-1-6.4-1.9-9.3
					c-3.1,1-5.7,3.3-9.2,3.3c-0.7-0.4-1.3-0.8-2-1.2C217.4,221.4,222.4,220.1,226.9,217.9z"/>
				<path d="M229.6,234.4c0.1,0.7,0.1,1.4,0.2,2.1c-1.3-1-2.1-2.1-2.6-3.2C227.9,233.6,228.7,234,229.6,234.4z"/>
				<path class="st2" d="M229.1,380.3c-0.6,1.5-0.3,3.3-2.5,3.3c-1.5,0-6.8-4.9-6.3-6.3c0.4-1.3,2-3.4,2.7-2.8
					C225.1,376.1,228.4,377,229.1,380.3z"/>
				<path class="st2" d="M227.9,311.1c0,0.1-0.1,0.3-0.1,0.4c-0.3,0.4-1.1,0.8-2.3,0.9c-3.1,0.2-3.2-2.3-3.8-4.2
					c-0.2-0.4-0.2-0.8-0.1-1.1c0.2-0.5,0.6-0.8,1.5-0.6C225.1,307.1,227.6,307.1,227.9,311.1z"/>
				<path class="st13" d="M227.1,233.2c-3.7-1.8-7.4-3.8-11-5.9c3.5-0.1,6.1-2.4,9.2-3.3C226.2,226.8,225.6,230.1,227.1,233.2z"/>
				<path class="st2" d="M219,294.5c1.7-0.1,6.8,4.1,6.5,5.4c-0.3,2.1-2.3,1.8-3.5,2.1c-3.7,0.2-4.7-1.7-4.7-4.6
					C217.3,296.1,217,294.5,219,294.5z"/>
				<path class="st0" d="M220.7,285.5l-2.5,1.5c-1.4-1.7-2.8-3.4-4.2-5.1c-0.6,0.3-1.2,0.4-1.3,0.7c-0.2,0.4-0.3,0.8-0.3,1.2
					l-1.4-0.1c0.4-2.6-0.7-3.9-3.1-5.3c-1.5-0.9-2.8-2.2-4.2-3.3c-1-3.2-2.8-6.5-0.1-9.1l2,0.2c-0.9,5.9,1.9,9.1,9,11.3l2.5-0.9
					C218.1,279.8,218.8,283,220.7,285.5z"/>
				<path class="st13" d="M219.8,183.7c0.8,7.7,0.9,6.3-5.6,3.2C215.8,185.4,218.1,185.1,219.8,183.7z"/>
				<path class="st2" d="M219.6,288.8c0.1,0.1-0.4,0.9-0.8,1.1c-1.8,0.9-3.2-0.1-4.3-1.4c-1.2-1.3-2.3-2.8-2.1-4.6
					c0-0.4,0.1-0.8,0.3-1.2c0.1-0.3,0.7-0.4,1.3-0.7c1.4,1.7,2.8,3.4,4.2,5.1C218.7,287.6,219.1,288.2,219.6,288.8z"/>
				<path class="st2" d="M215.8,360.4c1.7,2.8,3.9,5.5,3.6,9.1c-0.2,1.6-0.2,3.7-2.3,3.9c-1.7,0.2-2.6-1.5-3-2.9
					c-0.9-2.9-1.3-5.8-1.9-8.7c-0.1-1.3,0.2-2.4,1.5-2.9C215,358.5,215.3,359.5,215.8,360.4z"/>
				<path class="st5" d="M214.9,292.5c0.6,0.3,1.8,0.4,1.3,1.6c-0.2,0.4-0.7,1-1,1c-2.6-0.5-6.7-2.1-6.5-3.7c1.1-6.6-3-10.9-5.5-16
					l0.1,0c0,0,0,0,0,0l0.3-0.2c1.4,1.1,2.7,2.4,4.2,3.3c2.5,1.3,3.5,2.6,3.1,5.3c-0.1,0.4-0.1,0.7-0.2,1.1
					C209.8,288.3,211.8,291,214.9,292.5z"/>
				<path d="M216.1,227.3c-0.8,0-1.6-0.1-2.5-0.3c0.2-0.3,0.4-0.6,0.5-0.8C214.8,226.5,215.4,226.9,216.1,227.3z"/>
				<path class="st2" d="M210.6,343c3.7,3.4,4.4,6.7,3,10.5c-0.5,1.5-1.5,2.2-3,1.8s-2.2-1.4-1.9-3
					C209.3,349.5,209.8,346.5,210.6,343z"/>
				<path class="st2" d="M210.7,337.1c0.2,1.3,0,2.8-1.9,2.7c-1.4-0.1-1.8-1.3-1.7-2.5c0.3-2.5,0.7-5,1.1-7.6c0.3,0,0.7,0,1,0
					C209.7,332.3,210.4,334.6,210.7,337.1z"/>
				<path class="st2" d="M209.9,318c1.3,2.2,0.2,4.2-1.1,5.9c-0.7,0.9-1.8,1.2-2.6,0.5c-1.5-1.3-1.8-3.1-1.5-5
					c0.3-2.1,0.7-4.2,1.2-7.2C207.5,314.5,208.9,316.1,209.9,318z"/>
				<path class="st2" d="M205.5,266.4c2.1,5.2,5.3,8,9,11.3C207.4,275.5,204.6,272.3,205.5,266.4z"/>
				<path class="st0" d="M205.7,304.3l2.9,0.9c-0.8,1.6-1,3.1-0.5,4.4l-2.6,0.9c-6.9,0.3-9.9-5.5-7.3-12.5c0.2-0.6,1-1.3,1.5-2.1
					l2.5,0.2c-1,1.2-0.7,3.4-1.3,5.1c0.9,1.7-0.4,5.3,2.4,5C204.5,306,205.3,305.3,205.7,304.3z"/>
				<path d="M205.7,205.4c3.1-0.6,3,1.8,2.8,3.9c-0.4,4.1-2,8.2-1.1,12.3c-1.2-0.8-2.4-1.7-3.6-2.6c-0.2-1.3-0.2-2.6-0.1-4
					c0.4-4.1-0.7-5-4.5-3.4c-1.3,0.6-3.1,0.6-5,0.8c-0.2-0.1-0.4-0.2-0.5-0.4C196.4,206.9,201.2,206.3,205.7,205.4z"/>
				<path d="M208.3,224.6c-0.5-0.2-0.9-0.4-1.3-0.7c-1.9-1.2-2.9-2.9-3.2-4.8c1.2,0.9,2.3,1.7,3.6,2.6
					C207.5,222.6,207.8,223.6,208.3,224.6z"/>
				<path class="st2" d="M204.1,295.3c2.5-0.2,2.6,2.5,2.5,4.5c-0.1,1.5-0.3,3.2-0.9,4.5c-0.5,1-1.2,1.8-2.4,1.9
					c-2.8,0.3-1.5-3.3-2.4-5c0.6-1.6,0.4-3.9,1.3-5.1C202.6,295.6,203.2,295.3,204.1,295.3z"/>
				<path class="st2" d="M203,283.4c1,2,3,4.9,1,6.3c-2.2,1.6-4.3-1.2-6.2-2.7c-1.8-1.5-2-3.7-2.3-5.9c-0.3-2.5-0.1-5.2-2.3-7.1
					c0.9-0.8,1.4-2.2,2.9-2.4C197.3,276.1,201,279.3,203,283.4z"/>
				<path class="st5" d="M205.5,264.9c-0.8,0.4-1.5,0.9-2,1.3c-2.8,2.6-1,5.9,0.1,9.1l-0.3,0.2c-3.2-3.6-3.2-3.6-2.6-13.4
					c1.2-0.4,1.7,0.6,2.4,1.1S204.4,264.1,205.5,264.9z"/>
				<path class="st13" d="M203.8,219.1c-0.2-0.1-0.3-0.3-0.5-0.4c-2.9-2.2-6.1-4.1-9.1-6.2c2-0.2,3.7-0.2,5-0.8
					c3.8-1.6,4.9-0.7,4.5,3.4C203.6,216.5,203.5,217.9,203.8,219.1z"/>
				<path class="st18" d="M203.6,275.3l-0.3,0.2c0,0,0,0,0,0L203.6,275.3z"/>
				<path class="st2" d="M195.3,258c1.5,2.3,1.8,5.2,0.1,7.9c-0.8,1.2-1.8,1.6-2.8,0.6c-2.2-2-5.4-3.4-4.5-7.4
					c0.5-2.1,1.5-4.2-0.2-7.2C191.7,253.9,193.8,255.8,195.3,258z"/>
				<path d="M194.1,212.6c-0.3,0-0.5,0.1-0.8,0.1c0.1-0.1,0.1-0.3,0.2-0.4C193.8,212.3,194,212.4,194.1,212.6z"/>
				<path class="st5" d="M192.2,271.4c1.5,0.4,1.8,1.3,1,2.6c0,0-0.1-0.1-0.1-0.1c0.1,0.1,0,0.2,0,0.2c0,0,0.1,0,0.1-0.1
					c-1.5,1.9-1.2,4.2-0.9,6.2c0.7,4.4-1.1,6.1-5.2,7.3c-27.8,8.2-55.9,15.4-85.1,22.3c3.3-6.7,1.2-12-1.9-17.3
					c10.8-4.1,21.5-7.4,32.2-10.8c15.9-5.1,31.7-10.9,46.8-18.1c3-1.4,4.6-1.6,6.2,1.7C186.7,268,188.9,270.5,192.2,271.4z"/>
				<path class="st19" d="M193.2,274C193.2,274,193.2,274,193.2,274c0,0.1-0.1,0.1-0.1,0.1c0,0,0.1-0.1,0-0.2
					C193.1,273.9,193.1,273.9,193.2,274z"/>
				<path class="st5" d="M93.7,146.9c15.2-3.4,22,8.6,21.6,19.4c-0.2,6.4-1.8,12.9-9.1,15.8c-8.2,3.3-15.8,3-23.1-2.2
					c-2.1-1.5-3.4-3.4-3.9-5.6c-0.2-1.1-0.3-2.2-0.2-3.4c0.6-6.4,0.8-12.9,4.9-18.3c0,0,0,0.1,0,0.1c-1.1,5.8-1.3,7.2,0.9,4.5
					c-1.1,2.8-2.2,5.8-2.5,8.1c-0.7,4.3-0.2,12.1,3.2,14.7c6.9,5.1,15.7,4.5,22.8-0.2c4.3-2.9,7-12.1,5.4-18.2
					c-3.3-12.1-9.3-15.8-21.4-13.4c-0.3,0.1-1.9,1.3-3.1,3c-2,2.7-3.4,4.7-4.3,5.9c2.2-5.6,4.3-10.6,0.7-7.7
					c1.1-1.2,2.9-2.4,5.7-3.2l0.4,0.1C92.1,147.2,92.8,147.1,93.7,146.9z"/>
				<path d="M113.7,161.6c1.6,6.1-1.1,15.3-5.4,18.2c-7.1,4.7-15.9,5.3-22.8,0.2c-3.4-2.6-3.9-10.4-3.2-14.7
					c0.3-2.3,1.4-5.3,2.5-8.1c0.9-1.2,2.3-3.1,4.3-5.9c1.2-1.7,2.9-3,3.1-3C104.4,145.8,110.4,149.6,113.7,161.6z M108.9,167.3
					c0-0.5,0-1,0-1.4c-0.2-6.9-4.2-12.7-9.3-13.4c-6.3-0.9-10.3,2.1-12.8,9.7c-0.8,2.7-0.8,2.6-1.4,5.4c-0.3,1.2,0.1,5.5,1.1,6.7
					c2.8,3.6,10.3,5.9,15.5,4.1C107.2,176.4,108.8,172.4,108.9,167.3z"/>
				<path class="st20" d="M108.9,165.9c0,0.4,0,0.9,0,1.4c-0.1,5.1-1.7,9.2-6.9,11c-5.2,1.8-12.7-0.5-15.5-4.1
					c-1-1.2-1.4-5.5-1.1-6.7c0.6-2.8,0.6-2.7,1.4-5.4c2.5-7.6,6.5-10.6,12.8-9.7C104.7,153.1,108.7,158.9,108.9,165.9z M101.6,172.6
					c1.8-0.7,3.6-1.6,3-3.8c-0.6-2.1-2.5-1.6-4.2-1.2c-2.1,0.5-4.2,0.9-4.1-2.3c0.1-2.2,0.5-4.4,3.4-3.8c1.8,0.7,3,0.5,3.8-0.9
					c0.7-1.1,0.3-2.2-0.6-3.1c-2.8-2.9-7.8-3.1-10.8-0.2c-3.2,3.1-4.8,10.1-2.9,12.8C91,172.8,97.5,174.1,101.6,172.6z"/>
				<path class="st21" d="M104.6,168.8c0.6,2.2-1.2,3.1-3,3.8c-4.1,1.5-10.6,0.2-12.4-2.5c-1.9-2.7-0.3-9.7,2.9-12.8
					c3-2.9,8-2.7,10.8,0.2c0.9,0.9,1.3,2,0.6,3.1c-0.8,1.4-2,1.6-3.8,0.9c-2.9-0.6-3.3,1.6-3.4,3.8c-0.1,3.2,2,2.8,4.1,2.3
					C102.1,167.1,104,166.6,104.6,168.8z"/>
				<path class="st2" d="M99.5,303.5c0.4,4.6-4.5,9.9-10.6,11.5c4.9-7.6,4.5-14.2-1.1-20.3c-1-1.1-1.4-1.9-0.5-3.3
					c1.1-1.7,2.1-1,3.3-0.6C97,293,99,296.9,99.5,303.5z"/>
				<path class="st22" d="M93.9,280.5c-5.1,1.5-5.1,1.5-8.6-3.9C90,274.6,90.8,279,93.9,280.5z"/>
				<path class="st5" d="M85.6,298.5c2.2,2.5,2.5,5.5,2.4,8.3c0,2.4-1,4.9-4.3,5.2c-16,1.5-31.8,4.5-47.7,6.9
					c-0.2,0.1-0.7-0.4-1.7-1c15.8-6.9,31.3-13.6,46.6-20.6C83.4,296.3,84.1,296.9,85.6,298.5z"/>
				<path class="st5" d="M83.9,152.5c0-0.8,0.5-1.9,1.6-3.1c0,0,0,0,0,0c3.6-2.9,1.4,2.1-0.7,7.7c-2.1,2.6-1.9,1.3-0.9-4.5
					C83.9,152.6,83.9,152.6,83.9,152.5L83.9,152.5z"/>
				<path class="st23" d="M85.7,281.3c-1.8-0.6-4.4,2.3-5.1-1.1c-0.2-1-1.2-3.2,1.2-3.6C85.3,276,84.4,279.5,85.7,281.3z"/>
				<path class="st24" d="M80.3,285.8c3.1-1.2,6,0,8.9-1.6C85.1,290.5,85.1,290.5,80.3,285.8z"/>
				<path class="st5" d="M84.5,150.4c0.4-0.4,0.7-0.7,1-0.9c-1.1,1.1-1.5,2.3-1.6,3.1v0c-4.1,5.4-4.3,12-4.9,18.3
					c-0.1,1.2,0,2.3,0.2,3.4l-0.2,0.1C77.2,165.2,79.5,155,84.5,150.4z"/>
				<path class="st22" d="M78.2,277.1c0.6-0.1,1.2,0.2,1.2,1c-1,1.2-0.5,3.5-2.7,3.7c-0.8,0.1-2-0.3-1.6-1.2
					C75.8,279.3,76.3,277.5,78.2,277.1z"/>
			</g>
			<g>
			</g>
		</g>
	</g>
	<path class="st2" d="M361.4,317.1c0.3,3.5,0.8,7.1-2.1,10.3C356.3,323.1,359.5,320.3,361.4,317.1z"/>
</g>
<g id="Mouth_cover">
	<path class="st5" d="M184.5,177.4l41.5-19.5l57.5-4.5c0,0,52.5,7.5,54,8.5s45.5,27.5,46.5,29s16,25.5,16,25.5l-35.5,22.5l-54,22
		l-63.5-1.5c0,0-37-8.5-39-9.5s-29.5-28-29.5-28l-5.5-15.5l10-18L184.5,177.4z"/>
</g>
<g id="Mouth_open" class="st25">
	<g id="Mouth" class="st26">
		<path class="st27" d="M187.5,201.4c17.6-13,38.3-29.7,83-32.5s83.7,11.9,105.6,44.4c0,0,3.5-0.4-3.2,7.2c-6.7,7.5-39,26.3-70,29.1
			c-31.1,2.8-46.5,0.8-61.3-5S191,214.1,191,214.1l-5.9-9.1L187.5,201.4z"/>
		<g>
			<path class="st28" d="M292.2,253.3c0,0.1,0,0.2,0,0.3c5.8-0.5,11.6-0.9,17.3-1.6c8.3-1,16.4-3.1,24.1-6.2
				c8.8-3.5,17.5-7.4,25.8-12.1c7.2-4.1,13.7-9.1,19.2-15.4c3-3.5,3.1-6.5,0.2-10.1c-0.6-0.8-1.3-1.5-1.9-2.2
				c-5.8-6.5-11.9-12.7-18.9-18.1c-8.2-6.3-16.9-11.5-26.5-15.2c-13.9-5.4-28.5-7.7-43.4-7.8c-8.6-0.1-17.2,0.5-25.7,1.9
				c-8.3,1.4-16.5,2.8-24.7,4.4c-8,1.6-15.9,4-23.1,8c-7.5,4.2-14.9,8.7-22.2,13.2c-3.3,2.1-6.4,4.5-8.9,7.6
				c-2.7,3.4-2.9,6.7-0.6,10.3c2.2,3.2,4.8,6,8.1,8.1c4.5,2.9,9,5.7,13.5,8.6c6.6,4.3,13.2,8.6,20.3,12c3.8,1.9,7.7,3.6,11.6,5.4
				c5.7,2.7,11.5,5.2,17.7,6.9c4.9,1.3,9.9,2.1,14.9,1.8c3.5-0.2,6.9-0.4,10.4-0.3C283.8,253,288,253.2,292.2,253.3z"/>
			<g id="XMLID_2_">
				<g>
					<path d="M206.6,214.2c0-1.9-0.9-2.6-2.8-2.1c-2.3,0.6-4.6,1.3-7,1.9c3.3,2.3,6.6,4.6,9.8,6.7
						C206.6,218.6,206.6,216.4,206.6,214.2z M188.7,204.3c-1.4,1.3-1.3,2.3,0.1,3.6c1.2,1.1,2.5,2.1,3.9,3.1
						c1.6,1.2,1.6,1.2,3.2-0.1c0.2-0.2,0.4-0.4,0.7-0.5c3.8-2.5,8-3.5,12.4-4.1c1.8-0.3,2.5,0.6,2.5,2.5c0,1.4-0.3,2.8-0.5,4.2
						c-0.3,2.6-0.7,5.3-0.8,7.9c0,0.9,0.3,2.1,0.9,2.7c1.4,1.2,3.2,2.1,4.7,3.1c1.2-1.1,2.1-2.3,3.3-3c3.2-1.8,6.4-3.5,9.7-5.1
						c0.7-0.3,1.7-0.4,2.3,0c0.9,0.5,0.9,1.5,0.9,2.6c-0.2,4.2-0.2,8.3-0.3,12.5c0,1.1,0.4,1.9,1.6,2.3c1.4,0.5,2.8,1.2,4.2,1.9
						c0.6,0.3,0.8,0.2,1.2-0.4c0.5-1,1.2-2.1,2.1-2.7c3.1-2.1,6.2-4.1,9.4-6c1.7-1.1,3.4-0.5,4.4,1.3c0.5,0.8,0.9,1.6,1.3,2.4
						c2.3,4.1,4.6,8.1,3.1,13.1c0.4,0.1,0.6,0.3,0.9,0.3c2.2,0.2,4.3,0.4,6.5,0.5c2.5,0.1,2.5,0,3.4-2.3c1.3-3.5,3.8-6.2,6.3-8.8
						c1.7-1.8,3.2-2.1,5.4-0.9c1,0.6,2,1.2,2.8,2.1c1.6,1.7,2.9,3.6,4.5,5.3c1.1,1.2,2.1,2.3,1.8,4.1c0,0.1,0.1,0.1,0.2,0.3
						c0.8,0,1.7-0.1,2.6,0c1.8,0.3,3-0.3,3.3-2.2c0-0.2,0.2-0.4,0.3-0.6c2.2-3.9,5.4-6.9,8.6-9.9c0.8-0.7,1.8-0.8,2.7-0.3
						c1,0.5,1.9,1,2.7,1.7c2.8,2.4,6.8,3.7,7.9,8c3.3-1.1,6.5-2.1,9.7-3.1c0.3-0.1,0.6-0.6,0.7-1c0.5-3.8,2.1-7.3,3.7-10.8
						c0.9-1.8,2.2-2.6,4.2-2.6c4.2-0.2,8.3,0.4,12.3,1.3c1.5,0.4,3.1,0.8,4.9,1.3c5.1-2.9,10.1-6.4,14.6-10.6
						c2.5-2.5,2.7-3.6,0.4-6.3c-4-4.6-8.2-9.2-12.5-13.6c-2.1-2.2-4.7-3.8-7.6-4.8c-3.5-1.2-7.1-1-10.6-0.2
						c-1.6,0.4-3.3,0.3-4.4-1.1c-1.1-1.3-0.5-2.6,0.2-3.9c0.1-0.1,0.1-0.3,0.2-0.4c0.8-1.9,0.4-3.5-1.4-4.5
						c-2.9-1.6-5.8-3.1-8.9-4.4c-2.7-1.1-5.5-0.9-7.9,1c-0.7,0.6-1.4,1.2-2.2,1.7c-1.5,1-3.4,0.8-4.6-0.6c-1-1.2-1.7-2.7-1.6-4.3
						c0.1-1.1-0.4-1.8-1.4-2.2c-4.1-1.7-8.2-1.2-12.2,0.3c-2,0.8-3.4,2.3-4.7,4c-1.5,2.1-3.1,2.2-5,0.6c-1.7-1.4-3-3.1-3.8-5.1
						c-0.4-1.1-1.1-1.8-2.4-1.6c-1.1,0.1-2.3,0.2-3.4,0.3c-4.2,0.4-7.2,2.2-8.4,6.6c-0.7,2.7-4.4,3.9-7,2.4c-1.6-0.9-2-2.4-2.3-4
						c-0.2-1-0.7-1.6-1.8-1.5c-4.3,0.4-8.7,0.9-13,1.3c-2,0.2-2.6,0.8-3.3,3.3c-0.3,1.2-0.8,2.4-1.2,3.6c-1.1,2.8-3.7,2.1-4.7,0.3
						c-0.7-1.3-1.4-2.7-2.2-4.1c-2.3,1-4.7,1.9-7.1,2.9c-1.7,0.8-2.3,2.1-1.9,4c0.2,0.9,0.4,1.7,0.4,2.6c0,2.1-1.8,3.2-3.6,2.3
						c-1.5-0.8-3-1.6-4.4-2.5c-1.1-0.7-2.1-0.8-3.2-0.1c-5.9,3.5-11.8,7-17.6,10.7C192.1,201.2,190.4,202.7,188.7,204.3z
						 M292.2,253.3c-4.2-0.1-8.4-0.4-12.6-0.4c-3.5,0-6.9,0.2-10.4,0.3c-5.1,0.2-10.1-0.5-14.9-1.8c-6.1-1.7-11.9-4.2-17.7-6.9
						c-3.9-1.8-7.8-3.6-11.6-5.4c-7.1-3.4-13.7-7.8-20.3-12c-4.5-2.9-9.1-5.6-13.5-8.6c-3.2-2.1-5.9-4.9-8.1-8.1
						c-2.3-3.5-2.1-6.8,0.6-10.3c2.4-3.1,5.5-5.6,8.9-7.6c7.3-4.5,14.7-9,22.2-13.2c7.2-4,15-6.4,23.1-8c8.2-1.7,16.4-3.1,24.7-4.4
						c8.5-1.4,17.1-2,25.7-1.9c14.9,0.2,29.4,2.5,43.4,7.8c9.6,3.7,18.4,8.9,26.5,15.2c7,5.3,13,11.6,18.9,18.1
						c0.6,0.7,1.3,1.4,1.9,2.2c2.9,3.6,2.8,6.5-0.2,10.1c-5.4,6.3-12,11.3-19.2,15.4c-8.3,4.8-16.9,8.6-25.8,12.1
						c-7.8,3.1-15.8,5.2-24.1,6.2C303.8,252.7,298.1,252.8,292.2,253.3C292.3,253.2,292.2,253.4,292.2,253.3z M348.3,231.5
						c0-0.1-0.1-0.2-0.1-0.3c-2.9,0.4-5.7,0.2-8.4-0.7c-2.2-0.7-3.4-0.1-4.4,1.9c-1,1.9-1.9,3.9-2.9,5.8c0,0.1,0.1,0.2,0.1,0.3
						C337.8,236.2,343,233.8,348.3,231.5z M313.9,243.9c-1.1-0.9-1.9-1.7-2.8-2.4c-1.8-1.4-3.8-2-6.1-1.1c-2.9,1.2-5,3.4-7.4,5.8
						C303.3,245.8,308.6,245.2,313.9,243.9z M283.3,245.5c-0.8-1.2-1.5-2.5-2.4-3.7c-1.5-2.2-2.8-2.3-4.5-0.2
						c-1.2,1.5-2.5,3.1-3.6,4.6C276.2,245.9,279.8,245.7,283.3,245.5z M253.2,244.6c-0.5-1.7-0.8-3.1-1.2-4.4
						c-0.4-1.4-0.8-2.8-1.3-4.1c-0.3-0.9-0.9-1.1-1.7-0.7c-2.2,1.2-4.5,2.4-6.7,3.6c-0.3,0.2-0.6,0.5-1.1,0.8
						C245.3,241.4,249.2,243,253.2,244.6z M229.5,234.3c0.1-0.1,0.2-0.1,0.3-0.2c-2-2.9-1.2-6.4-2.3-9.6c-3.1,1.3-6.1,2.6-9.2,4
						C221.9,230.4,225.7,232.4,229.5,234.3z M343,188.6c-0.9-0.7-1.5-1.5-2.3-1.9c-0.7-0.3-1.7-0.4-2.3-0.1
						c-0.8,0.4-1.3,1.3-1.9,2.1c-0.5,0.6-0.3,1.2,0.4,1.4c0.5,0.2,1.1,0.2,1.6,0.1C340,189.8,341.4,189.2,343,188.6z M310.3,175.6
						c0.8,3.3,1.9,3.5,6.2,1C314.3,176.2,312.4,175,310.3,175.6z M289.8,171.7c-0.1-0.1-0.1-0.2-0.2-0.3c-1.9,0-3.9,0-6.1,0
						c0.8,1.2,1.6,2.3,2.5,3.4c0.2,0.2,1.2,0.2,1.4-0.1C288.3,173.8,289,172.7,289.8,171.7z M264,178c1.2-0.9,1.8-2.1,2-3.6
						c-1.8,0.4-3.5,0.7-5.4,1.1c0.4,0.8,0.6,1.5,1,2.1C262.3,178.6,263,178.7,264,178z M237.9,181.1c0.5-0.8,0.7-1.8,1.1-2.7
						c-1.1,0.3-2.1,0.5-3,0.9c-0.5,0.2-1.4,1.1-1.3,1.3c0.3,0.7,0.9,1.4,1.6,1.8C236.7,182.4,237.6,181.6,237.9,181.1z M219.6,189.9
						c0.9,0.5,1.3,0,1.3-0.8c0-1.2-0.2-2.3-0.3-3.6c-1.7,0.9-3.2,1.6-4.9,2.5C217.2,188.7,218.4,189.3,219.6,189.9z"/>
				</g>
			</g>
			<path class="st13" d="M297.6,246.2c2.4-2.4,4.5-4.6,7.4-5.8c2.3-0.9,4.3-0.3,6.1,1.1c0.9,0.7,1.8,1.5,2.8,2.4
				C308.6,245.2,303.3,245.8,297.6,246.2z"/>
			<path class="st13" d="M241.3,239.8c0.5-0.3,0.7-0.6,1.1-0.8c2.2-1.2,4.5-2.4,6.7-3.6c0.8-0.4,1.4-0.2,1.7,0.7
				c0.4,1.4,0.9,2.8,1.3,4.1s0.7,2.7,1.2,4.4C249.2,243,245.3,241.4,241.3,239.8z"/>
			<path class="st13" d="M332.4,238.2c1-1.9,1.9-3.9,2.9-5.8c1.1-2.1,2.2-2.7,4.4-1.9c2.8,0.9,5.6,1.1,8.4,0.7
				c0,0.1,0.1,0.2,0.1,0.3c-5.3,2.3-10.5,4.7-15.8,7C332.5,238.4,332.4,238.3,332.4,238.2z"/>
			<path class="st13" d="M218.2,228.5c3.1-1.3,6.1-2.6,9.2-4c1,3.2,0.3,6.7,2.3,9.6c-0.1,0.1-0.2,0.1-0.3,0.2
				C225.7,232.4,221.9,230.4,218.2,228.5z"/>
			<path class="st13" d="M196.8,214c2.4-0.7,4.7-1.3,7-1.9c1.9-0.5,2.8,0.2,2.8,2.1c0,2.2,0,4.4,0,6.5
				C203.4,218.5,200.1,216.3,196.8,214z"/>
			<path class="st13" d="M283.3,245.5c-3.5,0.2-7.1,0.4-10.4,0.6c1.1-1.4,2.4-3,3.6-4.6c1.6-2,3-2,4.5,0.2
				C281.8,243,282.6,244.3,283.3,245.5z"/>
			<path class="st13" d="M343,188.6c-1.6,0.6-3.1,1.1-4.5,1.6c-0.5,0.1-1.1,0.1-1.6-0.1c-0.7-0.2-0.9-0.8-0.4-1.4
				c0.6-0.8,1.2-1.7,1.9-2.1c0.6-0.3,1.6-0.2,2.3,0.1C341.5,187.1,342.2,187.9,343,188.6z"/>
			<path class="st13" d="M283.5,171.4c2.2,0,4.1,0,6.1,0c0.1,0.1,0.1,0.2,0.2,0.3c-0.8,1-1.5,2.1-2.3,3c-0.3,0.3-1.2,0.3-1.4,0.1
				C285.1,173.8,284.4,172.6,283.5,171.4z"/>
			<path class="st13" d="M260.6,175.4c1.9-0.4,3.6-0.7,5.4-1.1c-0.2,1.6-0.9,2.8-2,3.6c-1,0.7-1.7,0.6-2.4-0.5
				C261.2,176.9,261,176.2,260.6,175.4z"/>
			<path class="st13" d="M220.6,185.5c0.1,1.3,0.2,2.5,0.3,3.6c0,0.9-0.4,1.3-1.3,0.8c-1.2-0.6-2.4-1.2-3.9-2
				C217.4,187.1,218.9,186.3,220.6,185.5z"/>
			<path class="st13" d="M316.5,176.6c-4.3,2.5-5.5,2.3-6.2-1C312.4,175,314.3,176.2,316.5,176.6z"/>
			<path class="st13" d="M239,178.3c-0.4,1-0.6,1.9-1.1,2.7c-0.3,0.5-1.3,1.3-1.5,1.2c-0.7-0.3-1.3-1.1-1.6-1.8
				c-0.1-0.2,0.7-1,1.3-1.3C237,178.8,238,178.6,239,178.3z"/>
		</g>
	</g>
</g>
<g id="Mouth_closed">
	<path d="M189.8,196.6c10.3-6.6,22.4-11.9,31.2-14.8c8.8-3,22.9-5.4,32.6-6.7s29.7-4.4,52.8-1.3s43.7,11.6,56.9,22.6
		s18.4,14,14.4,18.5c-4,4.4-11.9,9.9-22.4,15.1s-30.3,11.2-36.9,12.5s-51.2,5.1-74.8-2.4s-47.2-20-55.1-25.4
		c-7.9-5.4-9.9-10.1-3.5-15C188.6,196.8,189.8,196.6,189.8,196.6z"/>
	<path class="st27" d="M196.6,200.2c9.2-4.3,24.2-10.3,32.5-13.1c8.3-2.8,36.1-5.8,44.7-6.5c8.7-0.7,30.4-1.6,46.3,3.8
		c15.9,5.4,28,9.4,35.8,15.7c7.8,6.3,15.3,10.2,13,12.6c-2.3,2.4-26,16.5-48.5,19.6c-22.5,3.2-44.1,5-58.1,3.5
		c-14-1.4-39.2-10.2-45.7-13.6c-6.5-3.4-24.1-12.3-26.9-14.4c-2.9-2.2-2.4-2.6-0.8-3.3C190.5,203.8,190.7,203,196.6,200.2z"/>
	<path d="M213.2,192.6c-0.8,0.4,11.5-5.7,12.1-6c0,0-2.5,0.7-1.8,4c0.8,3.3,0.1,4.3-0.9,4.8s-2.2,0.2-5.4-1.6
		C214.1,191.9,214,192.2,213.2,192.6z"/>
	<path class="st13" d="M216.7,191.6l4.8-2.5c0,0,0.3,2.7,0.3,3.6c0.1,0.9-0.2,0.9-0.5,1S220.4,193.4,216.7,191.6z"/>
	<path d="M231.7,185.9L242,183c0,0-1.7,0-2.3,3.1s-2.4,6.1-3.9,5.5c-1.6-0.7-2-1.3-2.3-2.2C233.1,188.5,231.7,185.9,231.7,185.9z"/>
	<path class="st13" d="M239,184.2c-0.3,0.9-0.9,2.5-1.2,2.9s-1.2,1.1-1.4,1c-0.2,0-0.9-0.6-1-0.8s-0.6-1-0.6-1s0-0.2,0.3-0.5
		s0.6-0.5,1.1-0.8S239,184.2,239,184.2z"/>
	<path d="M254.8,181.6l16.8-2.8c0,0-3.9,1.1-5,4.3c-1.1,3.1-1,2.7-1.3,3c-0.3,0.4-1.7,1.7-3.3,1.6c-1.5-0.1-2.5-0.2-3.1-0.7
		c-0.6-0.5-1.5-1.2-1.8-2.3s-0.5-2.2-0.7-2.4C256.2,182,256,181.5,254.8,181.6z"/>
	<path class="st13" d="M259.6,181.4l5.4-1.1c0,0-0.2,1.4-0.7,2s-1.1,1.6-1.6,1.8s-1,0.6-1.8-0.2S259.6,181.4,259.6,181.4z"/>
	<path d="M277.6,179.3c0,0,1.6-0.5,2.5,1.4c0.9,1.9,2,4.2,4.8,5.9c2.8,1.7,4.5-2.6,6-3.8s3.5-2.2,7.6-2.9c0,0-8.9-2.1-12.6-2.4
		S277.6,179.3,277.6,179.3z"/>
	<path class="st13" d="M282.5,178.6l6.3,0.1l-2,2.8c0,0-0.6,0.8-1.1,0.7c-0.5-0.1-0.7,0-1.4-0.9
		C283.7,180.3,282.5,178.6,282.5,178.6z"/>
	<path d="M304.6,179.5l17.4,4.5c0,0-3.5-1-5.8,0.6c-2.3,1.6-4.5,3.7-5.9,3.1c-1.4-0.6-2.2-1.1-3.2-3c-0.9-1.9,0.1-3.7-1.7-4.5
		S304.6,179.5,304.6,179.5z"/>
	<path class="st13" d="M308.7,182c1.5-0.4,3.3,0.3,4.2,0.5c0.9,0.2,2,0.5,2,0.5s-3.5,2-4.5,1.7C309.4,184.4,309.1,183.7,308.7,182z"
		/>
	<path d="M330.7,186.9c3.2,1,17.9,6.7,21.6,10c0,0-6.7-3.6-13.2-1.4s-7.5-0.4-7.5-2C331.7,191.9,334.3,188.9,330.7,186.9z"/>
	<path class="st13" d="M340.6,191.8c-1.3-1.3-3.2-2.4-4.5-1.6c-1.3,0.8-2.5,2.8-2,3.3c0.5,0.5,1.5,0.7,3.1,0
		C338.7,192.8,340.6,191.8,340.6,191.8z"/>
	<path d="M351.4,223.5c-6.2-2.4-15.6-3.4-19.1-2.3s-5.6,10.7-5.7,11.6c-0.1,0.9,0,1.8-1.2,2.4C325.4,235.2,341.3,231,351.4,223.5z"
		/>
	<path class="st13" d="M329.5,234c1.6-3.4,2.8-7.2,4.3-7.9c1.4-0.7,1.5-0.2,5.9,0.5c4.3,0.7,6.1,0,6.1,0L329.5,234z"/>
	<path d="M291.9,238.9c1.3-2.3,9.2-13.1,11.8-13.4s11.1,6.5,12,10C315.7,235.5,303.9,239,291.9,238.9z"/>
	<path class="st13" d="M294.7,238.8c2.8-3.2,6.5-6.5,9.3-6.1c2.8,0.4,2.2,0.6,6.8,3.8C310.8,236.5,302.7,238.6,294.7,238.8z"/>
	<path d="M267.6,237.6c1.5-3.5,6.7-11.7,10.4-12.5c3.7-0.8,12.5,9,11.8,12.2C289.7,237.3,277.9,238.7,267.6,237.6z"/>
	<path class="st13" d="M272.2,237.3c0,0,3.9-5.8,5.5-5.9c1.6-0.1,2.6,1.6,4.9,5.4C282.6,236.8,278.2,238.1,272.2,237.3z"/>
	<path d="M238.6,231.5c1.4-2.2,10.9-10,14-9.7c3.1,0.3,3.1,3.1,5.7,7.5c2.6,4.4,1.7,9.5,1,10.3C258.6,240.3,246.1,236.9,238.6,231.5
		z"/>
	<path class="st13" d="M242.3,233c0.8-0.7,7.9-4.8,8.7-4.5c0.7,0.3,0.8,1,3.1,9.3C254,237.8,247.1,236.2,242.3,233z"/>
	<path d="M215.9,222.3c2.4-2,11.7-8.8,15.5-7.8s-1.7,15.7,2,17C233.4,231.5,223.3,228.8,215.9,222.3z"/>
	<path class="st13" d="M218.7,224.3l9.4-4c0,0,0.6,2.7,0.7,4.4c0.1,1.7,0.7,4.8,1.2,5.4L218.7,224.3z"/>
	<path d="M194.6,211.1c0.8,0.7,1.7,0.2,2.7-0.6c1-0.9,2.2-2.6,12-5c2.8-0.4,3.3-0.3,3.1,4.1c-0.2,4.4-1.8,11.6,0.7,13
		C213.1,222.6,199.3,217.5,194.6,211.1z"/>
	<path class="st13" d="M198.3,213.4c2.4-0.7,7.5-2.9,8.7-2.2c1.2,0.7,0.9,2.3,1.2,8.3L198.3,213.4z"/>
</g>
</svg>
