<?xml version="1.0" encoding="utf-8"?>
<!-- Generator: Adobe Illustrator 21.1.0, SVG Export Plug-In . SVG Version: 6.00 Build 0)  -->
<svg version="1.1" id="Capa_1" xmlns="http://www.w3.org/2000/svg" xmlns:xlink="http://www.w3.org/1999/xlink" x="0px" y="0px"
	 viewBox="0 0 512 512" style="enable-background:new 0 0 512 512;" xml:space="preserve">
<style type="text/css">
	.st0{fill:#FFFFFF;}
</style>
<g>
	<path class="st0" d="M111.8,267.8l239.1,239.1c3.4,3.4,7.4,5.1,11.8,5.1c4.4,0,8.4-1.7,11.8-5.1l25.6-25.7
		c3.4-3.4,5.1-7.3,5.1-11.8c0-4.5-1.7-8.4-5.1-11.8L198.5,256L400.2,54.4c3.4-3.4,5.1-7.4,5.1-11.8c0-4.5-1.7-8.4-5.1-11.8
		L374.5,5.1c-3.4-3.4-7.4-5.1-11.8-5.1c-4.4,0-8.4,1.7-11.8,5.1L111.8,244.2c-3.4,3.4-5.1,7.4-5.1,11.8S108.4,264.4,111.8,267.8z"/>
</g>
</svg>
