<?xml version="1.0" encoding="utf-8"?>
<!-- Generator: Adobe Illustrator 21.1.0, SVG Export Plug-In . SVG Version: 6.00 Build 0)  -->
<svg version="1.1" id="Capa_1" xmlns="http://www.w3.org/2000/svg" xmlns:xlink="http://www.w3.org/1999/xlink" x="0px" y="0px"
	 viewBox="0 0 512 512" style="enable-background:new 0 0 512 512;" xml:space="preserve">
<style type="text/css">
	.st0{fill:#FFFFFF;}
</style>
<g>
	<path class="st0" d="M400.2,244.2L161.1,5.1c-3.4-3.4-7.4-5.1-11.8-5.1c-4.4,0-8.4,1.7-11.8,5.1l-25.6,25.7
		c-3.4,3.4-5.1,7.3-5.1,11.8s1.7,8.4,5.1,11.8L313.5,256L111.8,457.6c-3.4,3.4-5.1,7.4-5.1,11.8c0,4.5,1.7,8.4,5.1,11.8l25.6,25.6
		c3.4,3.4,7.4,5.1,11.8,5.1c4.4,0,8.4-1.7,11.8-5.1l239.1-239.1c3.4-3.4,5.1-7.4,5.1-11.8S403.6,247.6,400.2,244.2z"/>
</g>
</svg>
